<svg xmlns="http://www.w3.org/2000/svg" viewBox="0 0 500 275.63"><defs><style>.cls-1{fill:#112f41;}.cls-2{fill:#ed553b;}</style></defs><title>logo-colorida</title><g id="Camada_2" data-name="Camada 2"><g id="Camada_2-2" data-name="Camada 2"><polygon class="cls-1" points="137.82 275.63 0 137.82 137.82 0 233.92 96.1 208.28 121.74 137.82 51.28 51.28 137.82 137.82 224.35 362.18 0 500 137.82 362.18 275.63 266.08 179.53 291.72 153.89 362.18 224.35 448.72 137.82 362.18 51.28 137.82 275.63"/><polygon class="cls-2" points="370.2 197.95 354.17 181.93 398.28 137.82 354.17 93.7 370.2 77.68 430.33 137.82 370.2 197.95"/><polygon class="cls-2" points="129.81 197.95 69.67 137.82 129.81 77.68 145.83 93.7 101.72 137.82 145.83 181.93 129.81 197.95"/></g></g></svg>