<?xml version="1.0" ?><!DOCTYPE svg  PUBLIC '-//W3C//DTD SVG 1.1//EN'  'http://www.w3.org/Graphics/SVG/1.1/DTD/svg11.dtd'><svg enable-background="new 0 0 512 512" height="512px" id="Prototyping" version="1.1" viewBox="0 0 512 512" width="512px" xml:space="preserve" xmlns="http://www.w3.org/2000/svg" xmlns:xlink="http://www.w3.org/1999/xlink"><path d="M256,0c141.355,0,256,114.645,256,256S397.355,512,256,512S0,397.355,0,256S114.645,0,256,0  z" fill="#AFBD77" id="Background"/><g id="Prototyping_1_"><path d="M429.326,70.623c2.432,2.431,5.212,4.862,7.991,7.293h-272.32c-2.086,0-3.825-1.385-3.825-3.472V59.16   c0-2.087,1.738-3.821,3.825-3.821h44.456v-9.032L101.428,47v71.555c0,2.087-1.738,3.826-3.82,3.826s-3.821-1.739-3.821-3.826   V43.532c0-2.087,1.739-3.825,3.821-3.825h0.348l115.322-0.692c2.082,0,3.816,1.738,3.816,3.472l0,0l0,0V59.16   c0,1.738-1.734,3.472-3.816,3.472h-44.813v7.99H429.326z" fill="#4E5A62"/><path d="M443.221,144.259c12.159,5.907,20.842,18.759,20.842,33.346v227.517c0,20.493-17.021,37.516-37.516,37.516   H48.979c-10.073,0-19.104-4.171-26.054-10.771c5.21,2.78,10.771,4.17,16.678,4.17h377.569c20.493,0,37.511-17.021,37.511-37.515   V171.01C454.683,160.589,450.169,150.859,443.221,144.259z" fill="#BDC6CB"/><path d="M39.603,133.494h377.569c20.493,0,37.511,16.672,37.511,37.516v227.512   c0,20.493-17.018,37.515-37.511,37.515H39.603c-20.494,0-37.516-17.021-37.516-37.515V171.01   C2.087,150.167,19.109,133.494,39.603,133.494z" fill="#DDE8EE"/><path d="M12.161,423.877c-0.35-0.346-0.35-0.693-0.693-1.042h89.96c-10.765-3.124-19.104-13.196-19.104-25.008   V170.313c0-11.812,8.339-21.884,19.104-25.008H12.504l0,0l0,0l0,0v-0.349h0.348l0,0l0,0l0,0l0,0l0,0v-0.348l0,0h0.349l0,0v-0.349   l0,0l0,0h0.348h95.177h29.87h278.576c14.242,0,26.049,11.811,26.049,26.053v227.515c0,14.243-11.807,26.05-26.049,26.05H138.596   h-29.87H12.161z" fill="#869292"/><path d="M118.451,157.46h287.606c13.895,0,25.008,11.462,25.008,25.356v202.852   c0,13.549-11.113,25.013-25.008,25.013H118.451c-13.899,0-25.356-11.464-25.356-25.013V182.816   C93.095,168.922,104.552,157.46,118.451,157.46z" fill="#DDE8EE"/><path d="M244.886,297.439c-1.041,0-2.087-0.344-2.779-1.039c-0.697-0.694-1.041-1.391-1.041-2.781   c0-0.691,1.041-1.39,3.123-2.425c2.087-0.699,4.518-1.396,7.298-2.087c2.431-0.694,5.21-1.39,7.642-2.089   c2.774-0.691,4.513-1.035,5.554-1.386c0-1.738,0-4.517,0.35-8.337c0-3.822,0.348-8.334,0.691-12.853   c0.35-4.862,1.047-9.725,1.738-14.935c0.692-5.21,1.739-9.724,2.78-14.242c1.041-4.169,2.432-7.642,4.17-10.417   c1.733-2.779,3.82-4.174,5.903-4.174c2.082,0,3.82,1.046,5.21,3.129c1.39,2.431,2.779,5.21,3.82,8.339   c1.391,3.472,2.083,7.292,2.779,11.458c1.042,3.826,1.391,7.99,2.083,11.815c0.349,3.816,0.697,7.293,1.041,10.417   c0,3.129,0.35,5.211,0.35,6.601c1.738-0.698,3.472-1.042,5.21-1.733c1.739-0.698,3.473-0.698,5.559-0.698   c1.391,0,2.084,0,2.432,0.698c0.344,0.691,0.693,1.384,0.693,2.43c0,1.038-0.693,1.734-1.734,2.433   c-1.047,0.691-2.436,1.384-3.826,1.733c-1.384,0.696-2.774,1.389-4.165,1.739c-1.389,0.343-2.43,0.691-3.127,1.039   c0.348,2.78,0.697,6.944,1.389,11.812c0.35,5.21,1.391,10.421,2.088,15.632c1.041,5.205,2.082,10.416,3.123,15.283   c1.39,4.514,2.78,7.986,4.169,10.416v-0.344c1.043,1.042,2.432,1.734,3.473,2.433c1.391,1.04,2.083,2.082,2.431,3.82   c-0.348,0.691-0.691,1.391-1.389,2.082c-0.692,0.698-1.391,1.042-2.083,1.042c-2.432,0-4.518-1.042-6.601-3.473   c-1.738-2.432-3.473-5.561-4.861-9.725c-1.391-3.82-2.779-7.99-3.821-12.503c-1.041-4.866-1.738-9.381-2.432-13.899   c-0.696-4.512-1.389-8.683-1.738-12.155c-0.348-3.82-0.691-6.601-1.041-8.339c-2.779,1.395-5.903,2.78-8.683,3.827   c-3.128,1.384-5.907,2.43-9.031,3.815c0,1.396,0,3.82,0.349,7.991c0,4.169,0.344,8.339,0.344,13.199   c0,2.433-0.344,5.211-0.344,7.643c0,2.431-0.349,4.513-0.697,6.253c-0.35,2.082-0.692,3.472-1.39,4.86   c-0.692,1.042-1.39,1.738-2.432,1.738c-1.738,0-2.779-1.04-3.123-2.778c-0.349-1.738-0.697-3.473-0.697-4.862   c0-5.211,0-10.421,0.349-15.632c0.349-4.862,0.349-10.072,0.349-15.631c-1.045,0.696-2.436,1.039-4.169,1.388   c-1.738,0.698-3.473,1.042-5.56,1.738c-1.738,0.351-3.82,1.042-5.559,1.39C247.317,297.439,245.927,297.439,244.886,297.439z    M280.663,228.317c-1.041,0-2.431,2.087-3.477,6.257c-1.041,3.816-2.083,8.683-2.774,14.586   c-0.697,5.559-1.391,11.811-1.738,17.713c-0.693,6.257-1.042,11.468-1.042,15.981c3.124-1.046,5.903-2.432,8.684-3.819   c2.779-1.391,5.902-2.781,8.683-3.823l-1.042-14.585c-0.349-1.046-0.692-3.477-1.041-6.954c-0.349-3.468-0.697-7.293-1.39-10.766   c-0.697-3.82-1.39-7.292-2.083-10.073C282.745,229.712,281.704,228.317,280.663,228.317z" fill="#5F5F5F"/><path d="M110.112,169.615h14.591c1.738,0,3.123,1.395,3.123,2.779v15.633c0,1.738-1.384,3.127-3.123,3.127h-14.591   c-1.734,0-3.128-1.389-3.128-3.127v-15.633C106.983,171.01,108.378,169.615,110.112,169.615z" fill="#A5A8A9"/><path d="M110.112,194.627h14.591c1.738,0,3.123,1.389,3.123,2.779v15.627c0,1.738-1.384,3.129-3.123,3.129h-14.591   c-1.734,0-3.128-1.391-3.128-3.129v-15.627C106.983,196.017,108.378,194.627,110.112,194.627z" fill="#A5A8A9"/><path d="M110.112,219.639h14.591c1.738,0,3.123,1.386,3.123,2.775v15.632c0,1.738-1.384,3.123-3.123,3.123h-14.591   c-1.734,0-3.128-1.385-3.128-3.123v-15.632C106.983,221.025,108.378,219.639,110.112,219.639z" fill="#A5A8A9"/><path d="M110.112,244.646h14.591c1.738,0,3.123,1.386,3.123,3.128v15.283c0,1.733-1.384,3.124-3.123,3.124h-14.591   c-1.734,0-3.128-1.391-3.128-3.124v-15.283C106.983,246.032,108.378,244.646,110.112,244.646z" fill="#A5A8A9"/><path d="M110.112,269.653h14.591c1.738,0,3.123,1.391,3.123,3.129v15.283c0,1.733-1.384,3.129-3.123,3.129h-14.591   c-1.734,0-3.128-1.396-3.128-3.129v-15.283C106.983,271.044,108.378,269.653,110.112,269.653z" fill="#A5A8A9"/><path d="M110.112,294.666h14.591c1.738,0,3.123,1.391,3.123,3.124v15.632c0,1.39-1.384,2.778-3.123,2.778h-14.591   c-1.734,0-3.128-1.389-3.128-2.778V297.79C106.983,296.057,108.378,294.666,110.112,294.666z" fill="#A5A8A9"/><path d="M110.112,319.672h14.591c1.738,0,3.123,1.391,3.123,3.129v15.627c0,1.39-1.384,2.78-3.123,2.78h-14.591   c-1.734,0-3.128-1.391-3.128-2.78v-15.627C106.983,321.063,108.378,319.672,110.112,319.672z" fill="#A5A8A9"/><path d="M110.112,344.68h14.591c1.738,0,3.123,1.391,3.123,3.129v15.632c0,1.39-1.384,2.78-3.123,2.78h-14.591   c-1.734,0-3.128-1.391-3.128-2.78v-15.632C106.983,346.07,108.378,344.68,110.112,344.68z" fill="#A5A8A9"/><path d="M139.293,169.615h14.586c1.734,0,3.128,1.395,3.128,2.779v15.633c0,1.738-1.395,3.127-3.128,3.127h-14.586   c-1.738,0-3.128-1.389-3.128-3.127v-15.633C136.165,171.01,137.555,169.615,139.293,169.615z" fill="#A5A8A9"/><path d="M139.293,194.627h14.586c1.734,0,3.128,1.389,3.128,2.779v15.627c0,1.738-1.395,3.129-3.128,3.129h-14.586   c-1.738,0-3.128-1.391-3.128-3.129v-15.627C136.165,196.017,137.555,194.627,139.293,194.627z" fill="#A5A8A9"/><path d="M139.293,219.639h14.586c1.734,0,3.128,1.386,3.128,2.775v15.632c0,1.738-1.395,3.123-3.128,3.123h-14.586   c-1.738,0-3.128-1.385-3.128-3.123v-15.632C136.165,221.025,137.555,219.639,139.293,219.639z" fill="#A5A8A9"/><path d="M139.293,244.646h14.586c1.734,0,3.128,1.386,3.128,3.128v15.283c0,1.733-1.395,3.124-3.128,3.124h-14.586   c-1.738,0-3.128-1.391-3.128-3.124v-15.283C136.165,246.032,137.555,244.646,139.293,244.646z" fill="#A5A8A9"/><path d="M139.293,269.653h14.586c1.734,0,3.128,1.391,3.128,3.129v15.283c0,1.733-1.395,3.129-3.128,3.129h-14.586   c-1.738,0-3.128-1.396-3.128-3.129v-15.283C136.165,271.044,137.555,269.653,139.293,269.653z" fill="#A5A8A9"/><path d="M139.293,294.666h14.586c1.734,0,3.128,1.391,3.128,3.124v15.632c0,1.39-1.395,2.778-3.128,2.778h-14.586   c-1.738,0-3.128-1.389-3.128-2.778V297.79C136.165,296.057,137.555,294.666,139.293,294.666z" fill="#A5A8A9"/><path d="M139.293,319.672h14.586c1.734,0,3.128,1.391,3.128,3.129v15.627c0,1.39-1.395,2.78-3.128,2.78h-14.586   c-1.738,0-3.128-1.391-3.128-2.78v-15.627C136.165,321.063,137.555,319.672,139.293,319.672z" fill="#A5A8A9"/><path d="M139.293,344.68h14.586c1.734,0,3.128,1.391,3.128,3.129v15.632c0,1.39-1.395,2.78-3.128,2.78h-14.586   c-1.738,0-3.128-1.391-3.128-2.78v-15.632C136.165,346.07,137.555,344.68,139.293,344.68z" fill="#A5A8A9"/><path d="M120.881,370.385h14.586c1.739,0,3.129,1.39,3.129,3.128v15.632c0,1.39-1.39,2.775-3.129,2.775h-14.586   c-1.738,0-3.127-1.386-3.127-2.775v-15.632C117.753,371.774,119.143,370.385,120.881,370.385z" fill="#A5A8A9"/><path d="M130.954,379.417h14.586c1.738,0,3.128,1.389,3.128,2.778v15.632c0,1.733-1.39,3.124-3.128,3.124h-14.586   c-1.734,0-3.129-1.391-3.129-3.124v-15.632C127.825,380.806,129.22,379.417,130.954,379.417z" fill="#A5A8A9"/><path d="M42.382,264.791c10.766,0,19.448,8.683,19.448,19.454c0,10.421-8.683,19.452-19.448,19.452   c-10.769,0-19.458-9.031-19.458-19.452C22.925,273.474,31.613,264.791,42.382,264.791z" fill="#657280"/><path d="M42.382,273.13c6.247,0,11.109,4.862,11.109,11.115c0,5.902-4.862,10.765-11.109,10.765   c-5.908,0-10.769-4.862-10.769-10.765C31.613,277.992,36.475,273.13,42.382,273.13z" fill="#5E6976"/><path d="M510.609,140.787c-0.697,108.024-1.045,216.053-1.39,324.078c-9.031,9.03-18.76,8.339-29.177,0   l1.391-324.422l11.807-29.874h5.21L510.609,140.787z" fill="#DDE8EE"/><path d="M497.758,471.115c-5.56,1.047-11.462-1.384-17.715-6.25l1.391-324.422l8.683-21.888l9.031,21.888   L497.758,471.115z" fill="#CCD6DC"/><polygon fill="#869292" points="510.609,140.787 510.609,142.177 481.434,141.828 481.434,140.443 493.24,110.569 498.45,110.569     "/><polygon fill="#BDBFC1" points="489.419,120.642 493.24,110.569 498.45,110.569 502.62,120.986  "/><path d="M72.949,117.518h50.015c3.127,0,5.559,2.431,5.559,5.555v10.421H67.391v-10.421   C67.391,119.949,69.82,117.518,72.949,117.518z" fill="#4E5A62"/><path d="M39.603,131.063h377.569c5.21,0,10.072,1.041,14.935,3.124l0,0c4.518,1.738,8.683,4.518,12.503,7.99l0,0   c6.253,3.477,11.812,8.339,15.633,14.586c3.82,6.256,5.903,13.202,5.903,20.842v227.517c0,11.112-4.515,20.842-11.463,28.134   c-7.293,7.293-17.365,11.463-28.136,11.463H48.979c-5.21,0-10.073-1.042-14.935-2.78c-4.513-1.733-8.688-4.512-12.503-7.983   c-6.257-3.478-11.812-8.689-15.633-14.592C2.087,413.11,0,406.161,0,398.521V171.01c0-11.118,4.519-20.843,11.468-28.136   C18.76,135.576,28.833,131.063,39.603,131.063z M417.172,135.576H39.603c-9.729,0-18.412,4.169-24.663,10.421   C8.339,152.25,4.519,161.28,4.519,171.01v227.512c0,6.601,1.739,12.851,5.21,18.411c3.472,5.559,8.333,10.071,14.242,13.199   l0.693,0.346c3.128,3.127,6.95,5.559,11.114,7.297c4.169,1.734,8.688,2.431,13.201,2.431h377.568   c9.729,0,18.412-3.82,24.663-10.073c6.601-6.601,10.421-15.288,10.421-25.01V177.605c0-6.595-1.738-13.201-5.21-18.411   c-3.473-5.555-8.334-10.073-14.241-13.197l-0.693-0.344l0,0l0,0l0,0l0,0c-3.128-3.128-6.948-5.559-11.113-7.297l0,0   C426.203,136.618,421.686,135.576,417.172,135.576z" fill="#4E5A62"/><path d="M512,142.177l-1.391,322.688c0,0.348,0,1.044-0.348,1.044l0,0c-2.083,2.084-3.821,3.473-5.903,4.515   c-2.088,1.39-4.17,2.082-6.257,2.43c-3.123,0.351-6.252,0-9.376-1.04c-3.127-1.39-6.251-3.128-9.728-5.904   c-0.345-0.348-0.345-0.696-0.345-1.044l0,0l1.39-323.037v-1.385v-0.349l0,0l7.986-19.801c0-0.344,0-0.344,0-0.344l0.696-2.087l0,0   l3.124-7.986c0.349-0.698,1.046-1.045,1.738-1.045l4.862,0.348c0.697,0,1.041,0.349,1.39,0.698l0,0l4.169,10.417L512,140.094   c0,0.349,0,0.349,0,0.693V142.177L512,142.177z M507.83,464.171l1.041-321.994v-1.39l-7.642-19.453l-3.821-9.375h-3.127   l-2.775,6.944l0,0l0,0l-0.697,2.083v0.349l-7.99,19.453v1.041l-1.385,322.343c2.774,2.084,5.554,3.822,8.334,4.515   c2.431,1.046,5.211,1.39,7.99,1.046c1.733-0.35,3.472-0.698,5.21-1.738C504.358,466.951,506.092,465.909,507.83,464.171z" fill="#4E5A62"/></g></svg>