<?xml version="1.0" ?><!DOCTYPE svg  PUBLIC '-//W3C//DTD SVG 1.1//EN'  'http://www.w3.org/Graphics/SVG/1.1/DTD/svg11.dtd'><svg enable-background="new 0 0 512 512" height="512px" id="Expand" version="1.1" viewBox="0 0 512 512" width="512px" xml:space="preserve" xmlns="http://www.w3.org/2000/svg" xmlns:xlink="http://www.w3.org/1999/xlink"><path d="M256,0.002c141.384,0,256,114.616,256,255.995c0,141.389-114.616,256.001-256,256.001  c-141.384,0-256-114.612-256-256.001C0,114.618,114.616,0.002,256,0.002z" fill="#40C4FF" id="Background"/><g id="Expand_1_"><polygon fill="#D2D3D5" points="109.192,318.892 415.131,318.892 447.684,487.347 35.557,486.717  "/><polygon fill="#BDBFC1" points="128.474,331.534 389.531,331.534 417.343,475.023 65.897,474.389  "/><polygon fill="#96989A" points="35.557,486.717 447.684,486.717 447.684,507.889 35.557,507.889  "/><circle cx="93.075" cy="176.355" fill="#4E5A62" r="76.483"/><circle cx="93.075" cy="176.355" fill="#48887B" r="73.954"/><circle cx="418.926" cy="176.355" fill="#4E5A62" r="76.483"/><circle cx="418.926" cy="176.355" fill="#48887B" r="73.954"/><circle cx="256.158" cy="76.483" fill="#4E5A62" r="76.483"/><circle cx="256.158" cy="76.483" fill="#48887B" r="73.954"/><path d="M258.053,306.568h-3.789l0,0l0,0l0,0l0,0v0.313l0,0h3.789l0,0l0,0V306.568L258.053,306.568L258.053,306.568   L258.053,306.568L258.053,306.568z M254.264,164.031c0-0.952,0.948-1.899,1.895-1.899c0.947,0,1.895,0.947,1.895,1.899l0,0v0.313   v0.317l0,0v0.317v0.313l0,0v0.317v0.317v0.318v0.313v0.317v0.317v0.317v0.313v0.317c0,0.947-0.947,1.895-1.895,1.895   c-0.947,0-1.895-0.947-1.895-1.895v-0.317v-0.313v-0.317v-0.317v-0.317v-0.313v-0.318v-0.317v-0.317l0,0v-0.313v-0.317l0,0v-0.317   V164.031L254.264,164.031z M254.264,179.515c0-0.947,0.948-1.895,1.895-1.895c0.947,0,1.895,0.948,1.895,1.895v0.317v0.629v0.317   v0.635v0.63v0.634v0.63l0,0c0,1.265-0.947,2.212-1.895,2.212c-0.947,0-1.895-0.948-1.895-2.212l0,0v-0.63v-0.634v-0.63v-0.635   v-0.317v-0.629V179.515z M254.264,195.002c0-0.947,0.948-1.895,1.895-1.895c0.947,0,1.895,0.948,1.895,1.895v0.631v0.634v0.948   v0.629v0.952l0,0c0,1.265-0.947,1.895-1.895,1.895c-0.947,0-1.895-0.63-1.895-1.895l0,0v-0.952v-0.629v-0.948v-0.634V195.002z    M254.264,210.49c0-0.952,0.948-1.898,1.895-1.898c0.947,0,1.895,0.947,1.895,1.898l0,0v0.948v0.629v0.948v0.952v0.313   c0,1.265-0.947,1.899-1.895,1.899c-0.947,0-1.895-0.634-1.895-1.899v-0.313v-0.952v-0.948v-0.629V210.49L254.264,210.49z    M254.264,225.974c0-0.947,0.948-1.895,1.895-1.895c0.947,0,1.895,0.948,1.895,1.895v0.634v0.947v0.631v0.951v0.63   c0,1.265-0.947,1.895-1.895,1.895c-0.947,0-1.895-0.63-1.895-1.895v-0.63v-0.951v-0.631v-0.947V225.974z M254.264,241.461   c0-1.264,0.948-1.895,1.895-1.895c0.947,0,1.895,0.631,1.895,1.895v0.63v0.952v0.63v0.947v0.635c0,0.947-0.947,1.895-1.895,1.895   c-0.947,0-1.895-0.947-1.895-1.895v-0.635v-0.947v-0.63v-0.952V241.461z M254.264,256.95c0-1.265,0.948-1.899,1.895-1.899   c0.947,0,1.895,0.634,1.895,1.899v0.313v0.946v0.636v0.946v0.949l0,0c0,0.949-0.947,1.898-1.895,1.898   c-0.947,0-1.895-0.949-1.895-1.898l0,0v-0.949v-0.946v-0.636v-0.946V256.95z M254.264,272.434c0-1.265,0.948-2.213,1.895-2.213   c0.947,0,1.895,0.948,1.895,2.213l0,0v0.635v0.946v0.631v0.634v0.948l0,0c0,0.946-0.947,1.895-1.895,1.895   c-0.947,0-1.895-0.948-1.895-1.895l0,0v-0.948v-0.634v-0.631v-0.946V272.434L254.264,272.434z M254.264,287.604   c0-0.947,0.948-1.894,1.895-1.894c0.947,0,1.895,0.946,1.895,1.894v0.635v0.313v0.635v0.629v0.637v0.629v0.635l0,0   c0,0.947-0.947,1.895-1.895,1.895c-0.947,0-1.895-0.947-1.895-1.895l0,0v-0.635v-0.629v-0.637v-0.629v-0.635v-0.313V287.604z    M254.264,303.092c0-0.951,0.948-1.898,1.895-1.898c0.947,0,1.895,0.947,1.895,1.898l0,0v0.313v0.317v0.317v0.316v0.314l0,0v0.315   v0.317l0,0v0.314l0,0v0.316l0,0v0.317l0,0l0,0v0.317l0,0l0,0l0,0l0,0v0.313l0,0h-3.789l0,0l0,0v-0.313l0,0l0,0l0,0l0,0v-0.317l0,0   l0,0v-0.317l0,0v-0.316l0,0v-0.314l0,0v-0.317v-0.315l0,0v-0.314v-0.316v-0.317v-0.317V303.092L254.264,303.092z" fill="#4E5A62"/><path d="M221.076,306.568c0,0.947-0.948,1.895-2.211,1.895c-0.949,0-1.895-0.947-1.895-1.895v-4.111   c0-0.947,0.946-1.894,1.895-1.894c1.264,0,2.211,0.946,2.211,1.894V306.568z M185.363,198.479c-0.947,0-1.899-0.948-1.899-1.895   c0-0.951,0.952-1.899,1.899-1.899h4.111c0.942,0,1.895,0.948,1.895,1.899c0,1.26-0.952,1.895-1.895,1.895H185.363z    M200.851,198.796c-0.952,0-1.898-0.952-1.898-1.899c0-1.264,0.947-2.212,1.898-1.895h4.107c0.948,0,1.895,0.948,1.895,1.895   c0,0.947-0.947,1.899-2.212,1.899H200.851z M216.335,198.796c-0.947,0-1.896-0.634-1.896-1.899c0-0.947,0.948-1.895,1.896-1.895   h2.846l0,0c0.947,0,1.895,0.948,1.895,1.895v1.265c0,1.264-0.948,1.899-2.211,1.899c-0.635,0-1.266-0.317-1.578-1.265H216.335z    M216.97,209.855c0-0.947,0.946-1.894,1.895-1.894c1.264,0,2.211,0.947,2.211,1.894v3.794c0,1.265-0.948,1.895-2.211,1.895   c-0.949,0-1.895-0.63-1.895-1.895V209.855z M216.97,225.344c0-0.947,0.946-1.899,1.895-1.899c1.264,0,2.211,0.952,2.211,1.899   v3.793c0,0.948-0.948,1.895-2.211,1.895c-0.949,0-1.895-0.947-1.895-1.895V225.344z M216.97,240.827   c0-1.261,0.946-1.895,1.895-1.895c1.264,0,2.211,0.634,2.211,1.895v3.793c0,0.948-0.948,1.899-2.211,1.899   c-0.949,0-1.895-0.951-1.895-1.899V240.827z M216.97,256.314c0-1.264,0.946-1.894,1.895-1.894c1.264,0,2.211,0.63,2.211,1.894   v3.793c0,0.949-0.948,1.896-2.211,1.896c-0.949,0-1.895-0.947-1.895-1.896V256.314z M216.97,271.803   c0-1.266,0.946-2.212,1.895-2.212c1.264,0,2.211,0.946,2.211,2.212v3.793c0,0.949-0.948,1.896-2.211,1.896   c-0.949,0-1.895-0.946-1.895-1.896V271.803z M216.97,286.975c0-0.948,0.946-1.9,1.895-1.9c1.264,0,2.211,0.952,2.211,1.9v4.105   c0,0.947-0.948,1.899-2.211,1.899c-0.949,0-1.895-0.952-1.895-1.899V286.975z" fill="#4E5A62"/><path d="M290.605,306.568c0,0.947-0.947,1.895-1.894,1.895c-1.266,0-2.213-0.947-2.213-1.895v-4.111   c0-0.947,0.947-1.894,2.213-1.894c0.946,0,1.894,0.946,1.894,1.894V306.568z M322.212,194.685c0.947,0,1.899,0.948,1.899,1.899   c0,0.947-0.952,1.895-1.899,1.895h-4.105c-0.947,0-1.9-0.635-1.9-1.895c0-0.951,0.953-1.899,1.9-1.899H322.212z M306.725,195.002   c0.952-0.317,1.899,0.631,1.899,1.895c0,0.947-0.947,1.899-1.899,1.899h-3.79c-1.264,0-2.211-0.952-2.211-1.899   c0-0.947,0.947-1.895,1.895-1.895H306.725z M291.241,195.002c0.947,0,1.895,0.948,1.895,1.895c0,1.265-0.947,1.899-1.895,1.899   h-0.948c-0.316,0.947-0.951,1.265-1.581,1.265c-1.266,0-2.213-0.635-2.213-1.899v-1.265c0-0.947,0.947-1.895,1.896-1.895l0,0   H291.241z M286.499,209.855c0-0.947,0.947-1.894,2.213-1.894c0.946,0,1.894,0.947,1.894,1.894v3.794   c0,1.265-0.947,1.895-1.894,1.895c-1.266,0-2.213-0.63-2.213-1.895V209.855z M286.499,225.344c0-0.947,0.947-1.899,2.213-1.899   c0.946,0,1.894,0.952,1.894,1.899v3.793c0,0.948-0.947,1.895-1.894,1.895c-1.266,0-2.213-0.947-2.213-1.895V225.344z    M286.499,240.827c0-1.261,0.947-1.895,2.213-1.895c0.946,0,1.894,0.634,1.894,1.895v3.793c0,0.948-0.947,1.899-1.894,1.899   c-1.266,0-2.213-0.951-2.213-1.899V240.827z M286.499,256.314c0-1.264,0.947-1.894,2.213-1.894c0.946,0,1.894,0.63,1.894,1.894   v3.793c0,0.949-0.947,1.896-1.894,1.896c-1.266,0-2.213-0.947-2.213-1.896V256.314z M286.499,271.803   c0-1.266,0.947-2.212,2.213-2.212c0.946,0,1.894,0.946,1.894,2.212v3.793c0,0.949-0.947,1.896-1.894,1.896   c-1.266,0-2.213-0.946-2.213-1.896V271.803z M286.499,286.975c0-0.948,0.947-1.9,2.213-1.9c0.946,0,1.894,0.952,1.894,1.9v4.105   c0,0.947-0.947,1.899-1.894,1.899c-1.266,0-2.213-0.952-2.213-1.899V286.975z" fill="#4E5A62"/><g><path d="M92.758,121.995c22.445,0,40.458,21.489,40.458,40.454c0.317,18.965-8.847,30.024-21.811,36.661l0,0H76.01    c-13.906-6.319-23.388-20.225-23.388-36.343C52.622,140.325,70.638,122.308,92.758,121.995z M111.405,199.109c0,0,0,0,0,0.316    C111.405,199.109,111.405,199.109,111.405,199.109z M76.327,219.021L76.327,219.021l-0.317-19.277c0-0.317,0-0.317,0-0.634l0,0    c0,0.316,0,0.634,0,0.634L76.327,219.021z" fill="#FFCC29"/><path d="M111.405,199.109c0,0.316,0,0,0,0.634v22.124c0,4.741-3.155,8.53-7.266,8.53l-20.547,0.317    c-4.105,0-7.266-4.106-7.266-8.531l-0.317-22.441c0,0,0-0.317,0-0.634l0,0H111.405z" fill="#BDBFC1"/><path d="M76.112,203.143l35.885-0.094c1.277,0,2.314,1.024,2.319,2.29l0,0c0.003,1.269-1.034,2.297-2.311,2.302    l-35.879,0.094c-1.278,0-2.319-1.024-2.324-2.289l0,0C73.802,204.176,74.836,203.147,76.112,203.143z" fill="#A9ABAE"/><path d="M76.135,212.067l35.879-0.09c1.282-0.004,2.324,1.02,2.324,2.285l0,0c0.005,1.269-1.029,2.298-2.307,2.302    l-35.884,0.095c-1.277,0-2.319-1.025-2.319-2.29l0,0C73.819,213.101,74.856,212.072,76.135,212.067z" fill="#A9ABAE"/><path d="M76.159,220.436l35.881-0.095c1.277-0.004,2.314,1.021,2.322,2.289l0,0c0,1.269-1.033,2.298-2.314,2.302    l-35.88,0.09c-1.278,0.005-2.315-1.02-2.324-2.285l0,0C73.845,221.468,74.878,220.439,76.159,220.436z" fill="#A9ABAE"/><polygon fill="#FFF212" points="82.963,159.603 104.452,159.603 106.034,159.603 106.034,161.185 106.034,199.109     102.874,199.109 102.874,162.766 84.544,162.766 84.544,199.109 81.381,199.109 81.381,161.185 81.381,159.603   "/><path d="M135.745,162.449c0-10.747-5.059-21.494-12.329-29.077c-8.213-8.217-18.965-13.906-30.659-13.589    c-23.701,0-42.662,19.278-42.662,42.983c0,16.118,9.166,30.654,23.701,37.925v0.63c-1.582,0.952-2.528,2.529-2.528,4.111    c0,1.894,0.946,3.159,2.528,4.106v0.634c-1.582,0.948-2.528,2.529-2.528,4.107c0,1.899,0.946,3.477,2.528,4.111v0.313    c-1.582,0.634-2.528,2.216-2.528,4.111c0,2.212,1.582,4.106,3.792,4.423c1.578,3.477,4.742,6.006,8.531,5.689h20.547    c3.793,0,6.953-2.212,8.535-5.689c2.529-0.317,4.106-2.211,4.106-4.74c0-1.578-0.947-3.16-2.528-4.107    c1.581-0.634,2.528-2.212,2.528-4.111c0-1.895-1.264-3.79-2.846-4.424c1.582-0.947,2.846-2.529,2.846-4.423    c0-2.213-1.264-3.794-2.846-4.424v-0.317C128.792,192.473,135.745,179.832,135.745,162.449z M112.04,202.902    c1.264,0,2.212,1.266,2.212,2.53c0,1.264-0.948,2.212-2.212,2.212h-0.635v4.423h0.635c1.264,0,2.212,0.948,2.212,2.212    c0,1.265-0.948,2.212-2.212,2.212h-0.635v3.793h0.635c1.264,0,2.212,0.948,2.212,2.213c0,1.264-0.948,2.529-2.212,2.529h-0.948    c-0.947,3.159-3.793,5.371-6.953,5.371l-20.547,0.317c-3.159,0-6.001-2.529-6.953-5.688H76.01c-1.265,0-2.212-0.948-2.212-2.212    s0.947-2.53,2.212-2.53h0.317v-1.264v-2.212H76.01c-1.265,0-2.212-1.264-2.212-2.529c0-1.264,0.947-2.212,2.212-2.212h0.317    l-0.317-4.423c-1.265,0-2.212-0.948-2.212-2.212c0-1.265,0.947-2.213,2.212-2.213v-3.476c0,0,0-0.317,0-0.634    c-13.906-6.319-23.388-20.225-23.388-36.343c0-22.441,18.017-40.458,40.136-40.771c22.445,0,40.458,21.489,40.458,40.454    c0.317,18.965-8.847,30.024-21.811,36.661c0,0,0,0,0,0.316c0,0,0,0,0,0.317v3.159H112.04z" fill="#4E5A62"/></g><g><path d="M297.877,52.147h-56.572c-4.741,0-8.534,3.794-8.534,8.531v32.871c0,4.424,3.793,8.536,8.534,8.536h43.613    l12.642,16.118v-16.118h0.317c4.741,0,8.535-4.112,8.535-8.536V60.678C306.412,55.941,302.618,52.147,297.877,52.147z" fill="#FFAB00"/><path d="M216.97,33.5h73.635c6.007,0,11.065,4.741,11.065,11.06v42.67c0,6.001-5.059,11.059-11.065,11.059h-56.57    l-16.436,21.176V98.29h-0.629c-6.324,0-11.064-5.058-11.064-11.059V44.56C205.906,38.242,210.646,33.5,216.97,33.5z" fill="#FFCA28"/><path d="M303.248,51.83v-7.27c0-6.953-5.688-12.955-12.643-12.955H216.97c-7.271,0-12.959,6.002-12.959,12.955    v42.67c0,6.635,5.371,12.324,11.694,12.642l0.313,19.594c0,0.63,0.318,1.265,0.953,1.582c0.946,0.313,1.578,0,1.895-0.635    l15.487-19.594c1.896,1.895,4.424,2.846,6.953,2.846h42.666l12.011,15.484c0.631,0.634,1.266,0.947,1.896,0.634    c0.947-0.317,1.264-0.952,1.264-1.582v-14.537c5.059-0.634,9.165-5.058,9.165-10.117V60.678    C308.306,56.889,306.412,53.725,303.248,51.83z M306.412,93.548c0,4.424-3.794,8.536-8.535,8.536h-0.317v16.118l-12.642-16.118    h-43.613c-2.846,0-5.371-1.583-6.953-3.794h-0.317l-16.436,21.176V98.29h-0.629c-6.324,0-11.064-5.058-11.064-11.059V44.56    c0-6.318,4.74-11.06,11.064-11.06h73.635c6.007,0,11.065,4.741,11.065,11.06v8.218c2.841,1.581,4.741,4.423,4.741,7.899V93.548z" fill="#4E5A62"/></g><g><path d="M437.255,144.749c-9.483-13.271-28.131-16.748-41.718-6.953c-13.59,9.482-16.753,28.129-7.271,41.719    c9.8,13.592,28.447,16.752,42.037,6.953C443.578,176.985,446.736,158.337,437.255,144.749z M429.037,184.89    c-12.642,8.848-30.024,6.001-38.871-6.64c-8.853-12.642-6.007-30.024,6.636-38.872c12.642-8.853,30.022-6.006,38.876,6.636    C444.525,158.655,441.678,176.038,429.037,184.89z" fill="#4E5A62"/><path d="M459.379,213.649l-19.911-27.813c4.423-5.058,7.586-11.063,8.533-17.699    c1.583-9.166-0.634-18.964-6.005-26.548c-11.377-16.118-33.818-19.912-49.619-8.535c-16.117,11.377-19.911,33.501-8.534,49.623    c9.481,13.906,27.494,18.96,42.981,12.324l19.597,27.813c2.528,3.477,7.585,4.423,11.063,1.895    C460.96,222.184,461.908,217.443,459.379,213.649z M456.219,223.132c-2.529,1.895-6.322,1.265-8.218-1.265l-20.542-29.395    c-14.54,6.953-32.553,2.847-42.034-10.746c-10.748-15.171-7.271-36.343,7.899-47.09c15.171-10.747,36.348-6.953,47.09,8.217    c9.482,13.272,7.587,31.606-3.477,42.982l20.547,29.078C459.379,217.443,458.748,221.233,456.219,223.132z" fill="#4E5A62"/></g><path d="M393.324,134.637c15.171-10.747,36.348-6.953,47.09,8.217c9.482,13.272,7.587,31.606-3.477,42.982   l20.547,29.078c1.895,2.528,1.264,6.318-1.266,8.217l0,0c-2.529,1.895-6.322,1.265-8.218-1.265l-20.542-29.395   c-14.54,6.953-32.553,2.847-42.034-10.746C374.677,166.556,378.153,145.383,393.324,134.637z M395.537,137.796   c13.587-9.795,32.234-6.318,41.718,6.953c9.481,13.588,6.323,32.236-6.952,41.718c-13.59,9.799-32.237,6.64-42.037-6.953   C378.784,165.925,381.947,147.278,395.537,137.796z" fill="#CCCCCC"/><path d="M435.99,186.467l20.547,29.077c3.789,5.375-3.795,10.747-7.271,5.375l-20.86-29.077   c1.266-0.634,2.53-1.264,3.79-2.212C433.462,188.68,434.726,187.731,435.99,186.467z" fill="#B3B3B3"/><path d="M395.219,137.166c13.594-9.8,32.871-6.641,42.671,7.266c9.794,13.906,6.636,32.871-7.271,42.67   c-13.906,9.795-32.87,6.636-42.666-7.271C378.153,165.925,381.313,146.961,395.219,137.166z" fill="#B8B8B8"/><path d="M396.172,138.744c12.952-9.165,30.971-6.006,40.136,6.953c9.165,12.958,6.005,30.658-6.952,39.824   c-12.96,9.165-30.659,6.322-39.824-6.636C380.365,165.925,383.212,147.908,396.172,138.744z" fill="#E6E6E6"/><path d="M451.479,485.135l-32.553-166.873c-0.317-1.898-1.896-3.477-3.795-3.477H109.192   c-1.894,0-3.159,0.948-3.789,2.525L31.762,485.135c-0.312,0.631-0.312,0.947-0.312,1.582v21.172c0,2.213,1.895,4.111,4.107,4.111   h412.127c2.213,0,4.111-1.898,4.111-4.111v-20.542v-0.63C451.795,486.082,451.479,485.766,451.479,485.135z M447.684,487.347   v20.542H35.557v-21.172l73.636-167.825h305.938l32.236,167.825h0.316V487.347z" fill="#4E5A62"/><g><path d="M360.771,395.693c-13.906,0.63-27.813,1.265-41.719,1.895c-14.223,0.634-28.76,1.264-42.981,1.899    c-1.267,0-2.213-0.951-2.213-1.899c0-3.79-0.318-7.266-0.634-11.06c0-3.477-0.313-7.271-0.313-10.746c0-0.631,0-1.266,0.313-1.582    c0.634-0.631,0.946-0.631,1.58-0.631c13.59,0,26.866,0,40.454,0c12.324,0,24.652,0,37.295,0c-0.947-2.212-1.582-4.105-2.211-6.323    c-0.318-0.63-0.318-1.577,0.316-1.895c0.313-0.63,1.265-0.946,1.895-0.946c14.536,3.476,29.077,6.636,43.618,9.164    c15.483,2.848,30.652,4.74,46.141,6.953c1.266,0,1.896,0.947,1.896,1.895c0,0.952-0.631,1.898-1.578,2.213    c-12.328,2.846-24.653,5.692-36.981,8.852c-13.272,3.477-26.547,7.271-39.506,11.061c-1.266,0.316-2.213-0.313-2.525-1.267    C362.665,400.752,361.719,398.222,360.771,395.693z" fill="#4E5A62"/><path d="M276.071,397.588c14.222-0.947,28.759-1.577,42.981-2.212c14.224-0.63,28.76-1.266,42.983-1.895    c1.264,3.159,2.213,6.006,3.477,9.165c13.59-4.11,26.864-7.583,39.823-11.064c12.324-3.159,24.967-6.318,36.977-9.165    c-15.804-1.895-31.287-4.107-46.459-6.953c-14.854-2.525-29.394-5.688-43.617-8.848c0.947,2.848,2.212,6.006,3.164,8.848    c-13.276,0-26.865,0-40.142,0c-13.588,0-26.864,0-40.454,0c0.318,3.793,0.318,7.271,0.631,11.064    C275.752,390.005,275.752,393.798,276.071,397.588z" fill="#5CA47A"/><path d="M119.628,395.693c-0.953,2.528-1.899,5.059-2.848,7.582c-0.316,0.953-1.264,1.583-2.528,1.267    c-12.956-3.79-26.235-7.584-39.507-11.061c-12.327-3.159-24.648-6.006-36.977-8.852c-0.947-0.314-1.577-1.261-1.577-2.213    c0-0.947,0.63-1.895,1.894-1.895c15.484-2.213,30.659-4.105,46.143-6.953c14.541-2.528,29.077-5.688,43.613-9.164    c0.634,0,1.582,0.316,1.899,0.946c0.63,0.317,0.63,1.265,0.313,1.895c-0.629,2.218-1.26,4.111-2.211,6.323    c12.646,0,24.97,0,37.295,0c13.588,0,26.864,0,40.458,0c0.629,0,0.943,0,1.577,0.631c0.317,0.316,0.317,0.951,0.317,1.582    c0,3.475-0.317,7.27-0.317,10.746c-0.317,3.794-0.634,7.27-0.634,11.06c0,0.948-0.943,1.899-2.212,1.899    c-14.219-0.636-28.755-1.266-42.979-1.899C147.439,396.958,133.533,396.323,119.628,395.693z" fill="#4E5A62"/><path d="M204.324,397.588c-14.219-0.947-28.755-1.577-42.979-2.212c-14.223-0.63-28.764-1.266-42.987-1.895    c-1.261,3.159-2.212,6.006-3.472,9.165c-13.59-4.11-26.869-7.583-39.825-11.064c-12.329-3.159-24.965-6.318-36.977-9.165    c15.802-1.895,31.289-4.107,46.459-6.953c14.854-2.525,29.39-5.688,43.613-8.848c-0.947,2.848-2.211,6.006-3.16,8.848    c13.277,0,26.865,0,40.138,0c13.588,0,26.864,0,40.458,0c-0.318,3.793-0.318,7.271-0.635,11.064    C204.641,390.005,204.641,393.798,204.324,397.588z" fill="#5CA47A"/></g></g></svg>