<svg xmlns="http://www.w3.org/2000/svg" viewBox="0 0 512 512"><defs><style>.cls-1{fill:#16a085;}.cls-2{fill:#4e5a62;}.cls-3{fill:#e6e7e8;}.cls-4{fill:#ffcc29;}.cls-5{fill:#bdbfc1;}.cls-6{fill:#a9abae;}.cls-7{fill:#fff212;}.cls-8{fill:#ccc;}.cls-9{fill:#b3b3b3;}.cls-10{fill:#b8b8b8;}.cls-11{fill:#fefefe;}.cls-12{fill:#a67c29;}.cls-13{fill:#b88a2e;}.cls-14{fill:#784e25;}.cls-15{fill:#94612e;}.cls-16{fill:#835931;}.cls-17{fill:#1abc9c;}.cls-18{fill:#f39c12;}.cls-19{fill:#900;}.cls-20{fill:#88a243;}.cls-21{fill:#fc9;}.cls-22{fill:#4d4d4d;}.cls-23{fill:#e6b800;}.cls-24{fill:#fc0;}.cls-25{fill:#cfa600;}.cls-26{fill:#c30;}.cls-27{isolation:isolate;}</style></defs><title>Ativo 2</title><g id="Camada_2" data-name="Camada 2"><g id="Think"><circle id="Background" class="cls-1" cx="256" cy="256" r="256"/><g id="Think-2" data-name="Think"><path class="cls-2" d="M332.57,279.68a41.75,41.75,0,0,1-16.11,3,43.89,43.89,0,0,1-36.13-18.81,74.43,74.43,0,0,1-18.21,2.39,69.19,69.19,0,0,1-69-69,67.91,67.91,0,0,1,7.76-31.64,65,65,0,0,1-5.08-26,68.16,68.16,0,0,1,68.37-68.36A67.07,67.07,0,0,1,314.07,93.1a83.49,83.49,0,0,1,48.06-15.23,82.05,82.05,0,0,1,82.1,82.1,51.08,51.08,0,0,1-.6,9.55,77.17,77.17,0,0,1,17.92,49.56,78.64,78.64,0,0,1-129,60.6Z"/><path class="cls-3" d="M262.12,262.67a71.5,71.5,0,0,0,19.7-3,40.64,40.64,0,0,0,34.64,19.4,39,39,0,0,0,16.71-3.58,75.1,75.1,0,0,0,124.49-56.42,73.91,73.91,0,0,0-17.61-48.36c.3-3.59.6-7.17.6-10.75a78.62,78.62,0,0,0-78.52-78.52,77.79,77.79,0,0,0-48.36,16.72,64.66,64.66,0,0,0-114.35,41.5,68.34,68.34,0,0,0,5.38,26,65.54,65.54,0,0,0,57.32,97Z"/><path class="cls-2" d="M411.69,311.33a24.78,24.78,0,1,1-24.78,24.78A24.77,24.77,0,0,1,411.69,311.33Z"/><circle class="cls-3" cx="411.69" cy="336.11" r="21.2"/><path class="cls-2" d="M436.47,363.57A18.51,18.51,0,1,1,418,382.08,18.51,18.51,0,0,1,436.47,363.57Z"/><path class="cls-3" d="M436.47,367.15a14.93,14.93,0,1,1-14.93,14.93A14.94,14.94,0,0,1,436.47,367.15Z"/><path class="cls-2" d="M118.52,330.43a29.4,29.4,0,0,1-23.88,11.95,30.15,30.15,0,0,1-10.15-1.8A52,52,0,0,1,0,300a53,53,0,0,1,11.35-32.24c0-1.79-.3-3.88-.3-5.67a54.31,54.31,0,0,1,85.08-44.78,45.18,45.18,0,0,1,77.62,31.65,46,46,0,0,1-3,16.71,47.13,47.13,0,0,1,4.78,20.3,46.52,46.52,0,0,1-57,44.48Z"/><path class="cls-3" d="M129.57,328.05A45.62,45.62,0,0,1,117,326.26,26.1,26.1,0,0,1,94.64,338.8a25.83,25.83,0,0,1-10.75-2.39,48.28,48.28,0,0,1-68.67-67.47,52.65,52.65,0,0,1-.3-6.87,50.7,50.7,0,0,1,81.51-40,41.93,41.93,0,0,1,73.74,26.87,39.06,39.06,0,0,1-3.59,16.72,42.3,42.3,0,0,1-37,62.4Z"/><path class="cls-2" d="M59.71,108.32a28.9,28.9,0,0,1,1.19-3.88,41.12,41.12,0,0,1,52.84-25.08,40.55,40.55,0,0,1,19.11,14,33.41,33.41,0,0,1,26.27-1.2,34.61,34.61,0,0,1,21.2,44.18,36.56,36.56,0,0,1-6.27,11.05A34.69,34.69,0,0,1,172.26,163a35.43,35.43,0,0,1-44.78,21.5,32.47,32.47,0,0,1-7.17-3.58,22.69,22.69,0,0,1-20,2.39,18.19,18.19,0,0,1-6.57-3.89,38.72,38.72,0,0,1-26,0c-20.6-7.46-31.64-30.15-24.19-50.75A40.15,40.15,0,0,1,59.71,108.32Z"/><path class="cls-3" d="M128.67,180.87a37.68,37.68,0,0,1-8.36-4.48,19.3,19.3,0,0,1-18.8,3.28,18.09,18.09,0,0,1-7.17-4.48,35.24,35.24,0,0,1-25.37.6,36.07,36.07,0,0,1-22.1-46,37.39,37.39,0,0,1,15.82-19.1c.6-1.79.9-3.29,1.5-4.78a38.09,38.09,0,0,1,48.36-23.29,39.35,39.35,0,0,1,19.11,15.53,30.08,30.08,0,0,1,26.27-2.69,30.92,30.92,0,0,1,18.81,39.71,32.09,32.09,0,0,1-6.57,11,27.91,27.91,0,0,1-1.5,15.53A31.27,31.27,0,0,1,128.67,180.87Z"/><path class="cls-2" d="M234.06,332.82A36.13,36.13,0,0,1,232,321.48a32.52,32.52,0,0,1,55.23-23.29,37.3,37.3,0,0,1,20.89-6.27,38.73,38.73,0,0,1,38.81,38.81c0,1.2-.29,2.39-.29,3.59A36,36,0,0,1,354.37,357a37,37,0,0,1-37,37,36.6,36.6,0,0,1-22.69-7.76,25.35,25.35,0,0,1-6.87.9,22.17,22.17,0,0,1-17-8.06,29.68,29.68,0,0,1-7.16.89,32.93,32.93,0,0,1-32.84-32.84A33.63,33.63,0,0,1,234.06,332.82Z"/><path class="cls-3" d="M263.61,376.11a27.78,27.78,0,0,0,8.66-1.19,18.6,18.6,0,0,0,15.52,8.66,19.5,19.5,0,0,0,7.47-1.5,34.27,34.27,0,0,0,22.09,8.36A33.57,33.57,0,0,0,350.79,357a33.24,33.24,0,0,0-8.07-21.79,22.46,22.46,0,0,0,.3-4.48,35,35,0,0,0-34.93-35.23A36,36,0,0,0,286.6,303a28.8,28.8,0,0,0-50.75,18.51,30.07,30.07,0,0,0,2.38,11.64,28.13,28.13,0,0,0-3.58,14A28.8,28.8,0,0,0,263.61,376.11Z"/><path class="cls-4" d="M111.65,102.05c12.25,0,22.1,11.64,22.1,22.1,0,10.14-4.78,16.11-11.94,19.7v.3H102.4a22.15,22.15,0,0,1,9.25-42.1Zm-9,52.85h0V144.14h0V154.9Z"/><path class="cls-5" d="M121.81,144.15v12.24c0,2.68-1.8,4.77-3.88,4.77H106.58c-2.09,0-3.88-2.09-3.88-4.77V144.15h19.11Z"/><path class="cls-6" d="M102.59,146.21l19.53,0a1.26,1.26,0,0,1,1.26,1.24h0a1.25,1.25,0,0,1-1.25,1.25l-19.53.06a1.27,1.27,0,0,1-1.27-1.25h0A1.27,1.27,0,0,1,102.59,146.21Z"/><path class="cls-6" d="M102.6,151.07l19.53,0a1.25,1.25,0,0,1,1.26,1.24h0a1.25,1.25,0,0,1-1.26,1.26l-19.52,0a1.26,1.26,0,0,1-1.27-1.25h0A1.25,1.25,0,0,1,102.6,151.07Z"/><path class="cls-6" d="M102.61,155.63l19.53,0a1.25,1.25,0,0,1,1.26,1.24h0a1.27,1.27,0,0,1-1.25,1.26l-19.53,0a1.25,1.25,0,0,1-1.26-1.25h0A1.24,1.24,0,0,1,102.61,155.63Z"/><polygon class="cls-7" points="106.28 122.65 117.92 122.65 118.82 122.65 118.82 123.25 118.82 144.15 117.33 144.15 117.33 124.15 107.17 124.15 107.17 144.15 105.39 144.15 105.39 123.25 105.39 122.65 106.28 122.65"/><path class="cls-8" d="M104.19,285.35,126,315.81a5.76,5.76,0,0,1-1.5,8.06h0a6,6,0,0,1-8.06-1.2L94.64,291.92Z"/><path class="cls-9" d="M103,286l21.79,30.75a4.41,4.41,0,1,1-7.16,5.08L95.83,291Z"/><path class="cls-8" d="M62.69,236.69A33.22,33.22,0,1,1,54.63,283,33.42,33.42,0,0,1,62.69,236.69Zm2.09,3a29.57,29.57,0,1,1-7.16,41.2C48.06,267.74,51.35,249.23,64.78,239.68Z"/><path class="cls-10" d="M64.19,239.08a30.32,30.32,0,1,1,34.93,49.56A30.45,30.45,0,0,1,57,281.48,30.81,30.81,0,0,1,64.19,239.08Z"/><path class="cls-11" d="M65.38,286.85a28.25,28.25,0,1,0,32.84-46,28.25,28.25,0,1,0-32.84,46Z"/><path class="cls-2" d="M185.69,358.8c6.57-4.78,15.82-2.69,20.3,3.88a14.87,14.87,0,0,1-4.18,20.6,14.66,14.66,0,1,1-16.12-24.48Zm-30.45,2.38a12,12,0,0,1,16.42,3.29,11.76,11.76,0,1,1-16.42-3.29Zm-19.4-6.86A9.64,9.64,0,0,1,149.27,357c3,4.47,1.79,10.74-2.69,13.43a9.69,9.69,0,0,1-10.74-16.12Z"/><path class="cls-3" d="M187.59,361.72a11.1,11.1,0,1,1-3.09,15.39A11.11,11.11,0,0,1,187.59,361.72Z"/><path class="cls-3" d="M157.34,364.19a8.08,8.08,0,1,1-2.25,11.21A8.09,8.09,0,0,1,157.34,364.19Z"/><path class="cls-3" d="M137.81,357.48a6,6,0,1,1-1.68,8.37A6,6,0,0,1,137.81,357.48Z"/><path class="cls-2" d="M211.37,68.92a14.73,14.73,0,0,1,11.35-27.18,15.2,15.2,0,0,1,8.05,19.41A14.8,14.8,0,0,1,211.37,68.92Zm-30.16,3.57A12.08,12.08,0,0,1,175,57c2.38-6,9.55-9,15.22-6.27a11.79,11.79,0,0,1,6.57,15.23A12.23,12.23,0,0,1,181.21,72.49ZM163.3,82.65a9.9,9.9,0,0,1-5.07-12.84,9.64,9.64,0,0,1,12.53-5.07,9.76,9.76,0,0,1,5.38,12.83A9.89,9.89,0,0,1,163.3,82.65Z"/><path class="cls-3" d="M212.82,65.64a11.11,11.11,0,1,0-5.95-14.53A11.1,11.1,0,0,0,212.82,65.64Z"/><path class="cls-3" d="M182.65,69a8.09,8.09,0,1,0-4.33-10.59A8.09,8.09,0,0,0,182.65,69Z"/><path class="cls-3" d="M164.75,79.24a6,6,0,1,0-3.23-7.89A6,6,0,0,0,164.75,79.24Z"/><path class="cls-12" d="M294.66,324.46c.6.3,1.2.3,1.79.9a4.27,4.27,0,0,0,1.79.6,84.72,84.72,0,0,1-2.38,15.22,80.64,80.64,0,0,0-2.09,14.93H285.7a73.69,73.69,0,0,1,4.48-15.82C292.27,334.91,294.06,329.84,294.66,324.46Z"/><path class="cls-13" d="M294.66,324.46c.6.3,1.2.3,1.79.9h.3a78,78,0,0,1-2.09,14.93,66.73,66.73,0,0,0-2.09,14.93H285.7a86.2,86.2,0,0,1,4.48-14.93C292.27,334.91,294.06,329.84,294.66,324.46Z"/><path class="cls-14" d="M280.33,348.05h17a2.73,2.73,0,0,1,3,2.39v11.4a2.73,2.73,0,0,1-3,2.39h-17a2.73,2.73,0,0,1-3-2.39v-11.4A2.73,2.73,0,0,1,280.33,348.05Z"/><path class="cls-15" d="M279.73,347.45h17a2.74,2.74,0,0,1,3,2.39v11.4a2.74,2.74,0,0,1-3,2.39h-17a2.72,2.72,0,0,1-3-2.39v-11.4A2.73,2.73,0,0,1,279.73,347.45Z"/><path class="cls-16" d="M284.21,344.17h8.36a1.59,1.59,0,0,1,1.49,1.49v1.79h-1.19v-.89a1.29,1.29,0,0,0-1.2-1.2h-6.56a1.28,1.28,0,0,0-1.19,1.2v.89h-1.5v-1.79A1.93,1.93,0,0,1,284.21,344.17Z"/><path class="cls-14" d="M282.72,347.45h.9v-.89a1.6,1.6,0,0,1,1.49-1.5h6.56a1.61,1.61,0,0,1,1.5,1.5v.89h.89v-1.79a1.36,1.36,0,0,0-1.49-1.19h-8.36a1.36,1.36,0,0,0-1.49,1.19v1.79Z"/><path class="cls-14" d="M280.33,347.15h1.39a.3.3,0,0,1,.29.3v16.47a.3.3,0,0,1-.29.3h-1.39a.31.31,0,0,1-.3-.3V347.45A.31.31,0,0,1,280.33,347.15Z"/><path class="cls-14" d="M295.26,347.15h1.38a.3.3,0,0,1,.3.3v16.47a.3.3,0,0,1-.3.3h-1.38a.3.3,0,0,1-.3-.3V347.45A.3.3,0,0,1,295.26,347.15Z"/><rect class="cls-17" x="278.62" y="355.43" width="5.82" height="3.8" transform="translate(-74.52 74.18) rotate(-13.27)"/><rect class="cls-18" x="291.84" y="354.82" width="4.78" height="7.32" transform="translate(-156.26 468.62) rotate(-64.36)"/><rect class="cls-19" x="284.56" y="349.04" width="4.78" height="7.32" transform="translate(-128 538.59) rotate(-75)"/><path class="cls-20" d="M278.84,335.51s5.37-7.76,10.45-8.66c10.45-1.79,15.22,2.09,17.31,10.45a24.62,24.62,0,0,0,0-7.16,10.39,10.39,0,0,0-3-5.68c2.68-.29,3.88-2.38,10.14,3.89,1.2-4.48-8.35-10.75-8.65-10.75L316.45,314a28.36,28.36,0,0,0-6.56-1.19c-2.69.3-5.08.3-9,2.09-1.49-6.86-6-9-13.14-6.56,3.29.59,9.26,3.57,9,7.46-8.36-2.69-10.45-1.8-17,3.58,0,0,9.26-.6,11,0,1.49.6,0,1.79,0,1.79S282.12,323.57,278.84,335.51Z"/><polygon class="cls-21" points="58.37 430.2 56.85 468 3.63 449.26 58.37 430.2"/><path class="cls-21" d="M58.37,430.2,56.85,468l-4.23-1.52c-2.11-1.81-5.14-4.53-6-6.95-1.51-3.33,6-7.26,7-10,.9-3-7-6.65-7.86-9.38-.3-1.51,4.23-5.44,8.47-8.46Z"/><polygon class="cls-22" points="16.33 453.49 3.63 449.26 16.33 444.72 16.33 453.49"/><path class="cls-23" d="M58.37,430.2H491.43c22.38,0,22.08,37.81,0,37.81H56.85c-1.81-5.14-7.56-7.56-7.56-9.38s7.27-5.44,7.27-9.68-9.38-7.86-7.27-9.37C51.11,438.07,54.44,434.44,58.37,430.2Z"/><path class="cls-24" d="M52,455.3c2.12-1.81,4.54-3.93,4.54-6.35s-2.73-4.53-5.15-6H462.7V455.3Z"/><path class="cls-23" d="M58.37,430.2H462.7v12.71H51.41c-1.81-1.52-3-2.73-2.11-3.33C51.11,438.07,54.44,434.44,58.37,430.2Z"/><polygon class="cls-25" points="462.7 430.2 474.8 430.2 474.8 468 462.7 468 462.7 430.2"/><path class="cls-26" d="M474.8,430.2h16.63c22.69,0,22.08,37.81,0,37.81H474.8Z"/><path class="cls-2" d="M506.25,432.93a19.2,19.2,0,0,0-14.82-6.35H57.16l-42,14.51-12.7,4.54A3.53,3.53,0,0,0,0,449a3.64,3.64,0,0,0,2.42,3.63l53.23,19.06H491.74c12.4,0,20-10.29,20.26-22.08A25.3,25.3,0,0,0,506.25,432.93ZM491.43,468H56.85l-4.23-1.52-36.29-13-12.7-4.23,12.7-4.54,37.8-13,4.24-1.52H491.43C514.12,430.2,513.51,467.7,491.43,468Z"/><g class="cls-27"><path class="cls-2" d="M314.07,227a28,28,0,0,1-1.28-9.17c0-32.61,25.58-35.6,25.58-72.69,0-10.66-4.26-14.71-11.72-14.71s-11.73,4.05-11.73,14.71v16.2H292.75V146.58c0-23.87,11.73-37.52,34.54-37.52s34.53,13.65,34.53,37.52c0,38.8-27.71,44.77-27.71,72.06A36.65,36.65,0,0,0,335,227ZM335.6,237.4V260H313V237.4Z"/></g></g></g></g></svg>