<?xml version="1.0" encoding="utf-8"?>
<!-- Generator: Adobe Illustrator 22.1.0, SVG Export Plug-In . SVG Version: 6.00 Build 0)  -->
<svg version="1.1" id="Web_Development" xmlns="http://www.w3.org/2000/svg" xmlns:xlink="http://www.w3.org/1999/xlink" x="0px"
	 y="0px" viewBox="0 0 512 512" style="enable-background:new 0 0 512 512;" xml:space="preserve">
<style type="text/css">
	.st0{fill:#00BCD5;}
	.st1{fill:#757575;}
	.st2{fill:#696969;}
	.st3{fill:#8D8D8D;}
	.st4{fill:#7F7F7F;}
	.st5{fill:#CCCCCC;}
	.st6{fill:#B8B8B8;}
	.st7{fill:#A6A6A6;}
	.st8{fill:#A9ABAE;}
	.st9{fill:#4E5A62;}
	.st10{fill:#B3B3B3;}
	.st11{fill:#C2C3C5;}
	.st12{fill:#CBD0D4;}
	.st13{fill:#51A8B1;}
	.st14{fill:#E6E7E8;}
	.st15{fill:#FFD54F;}
	.st16{fill:#D2D3D5;}
	.st17{fill:#BDBFC1;}
	.st18{fill:#0D3652;}
	.st19{fill:#699392;}
	.st20{fill:#607D8B;}
	.st21{fill:#F48884;}
	.st22{fill:#5CC6D0;}
	.st23{fill:#A7C4D2;}
	.st24{fill:#537473;}
	.st25{fill:#E84E40;}
	.st26{fill:#E6E6E6;}
	.st27{fill:#CFCFCF;}
	.st28{fill:#A1A1A1;}
	.st29{fill:#E74C3C;}
</style>
<path id="Background" class="st0" d="M256,0c140,0,253.6,114.6,253.6,256S396,512,256,512S2.4,397.4,2.4,256S116,0,256,0z"/>
<g id="Web_Development_1_">
	<path class="st1" d="M349,362.8c0,0.7,0.3,1.3,0.3,2c0,18.3-45.3,33-101.2,33c-55.6,0-100.9-14.7-100.9-33c0-0.7,0-1.3,0-2
		c0-0.3,0-1,0-1.6c0-18.3,45.3-33,100.9-33c56,0,101.2,14.7,101.2,33C349.3,361.8,349,362.4,349,362.8z"/>
	<path class="st2" d="M349,362.8c0,0.7,0.3,1.3,0.3,2c0,18.3-45.3,33-101.2,33c-2.3,0-4.9,0-7.1,0v-69.6c2.3,0,4.9,0,7.1,0
		c56,0,101.2,14.7,101.2,33C349.3,361.8,349,362.4,349,362.8z"/>
	<path class="st1" d="M241,328.2c2.3,0,4.9,0,7.1,0c54,0,98,13.7,100.9,31.3c-2.9,17.3-46.9,31-100.9,31c-2.3,0-4.9,0-7.1,0V328.2z"
		/>
	<path class="st3" d="M248.1,324.6c55.7,0,100.9,14.8,100.9,33c0,18.2-45.2,33-100.9,33c-55.7,0-100.9-14.8-100.9-33
		C147.2,339.3,192.3,324.6,248.1,324.6z"/>
	<path class="st4" d="M248.1,324.6c56,0,101.2,14.7,101.2,33c0,18.3-45.3,33-101.2,33c-2.3,0-4.9,0-7.1,0v-66
		C243.2,324.6,245.8,324.6,248.1,324.6z"/>
	<polygon class="st5" points="211.5,261.2 284.9,261.2 284.9,349.4 211.5,349.4 	"/>
	<polygon class="st6" points="284.9,308.6 284.9,349.4 241,349.4 241,308.6 	"/>
	<polygon class="st6" points="217,266.8 280.7,266.8 280.7,343.8 217,343.8 	"/>
	<polygon class="st7" points="280.7,308.6 280.7,343.8 241,343.8 241,308.6 	"/>
	<path class="st8" d="M65,54.9h367.7c3.6,0,6.8,2.9,6.8,6.9v240c0,3.9-3.2,6.9-6.8,6.9H65c-3.6,0-6.5-2.9-6.5-6.9v-240
		C58.5,57.8,61.5,54.9,65,54.9z"/>
	<path class="st9" d="M79.6,65h344.8c2.9,0,5.2,2.3,5.2,5.2v217.5c0,2.9-2.3,5.2-5.2,5.2H73.4c-2.9,0-5.2-2.3-5.2-5.2V76.4
		C68.2,69.9,73.4,65,79.6,65z"/>
	<path class="st5" d="M249,294.5c2.9,0,5.2,2.3,5.2,5.2c0,2.9-2.3,5.2-5.2,5.2c-2.9,0-5.2-2.3-5.2-5.2
		C243.9,296.9,246.2,294.5,249,294.5z"/>
	<path class="st10" d="M249,296.2c2,0,3.6,1.6,3.6,3.6c0,2-1.6,3.6-3.6,3.6c-2,0-3.6-1.6-3.6-3.6C245.5,297.8,247.1,296.2,249,296.2
		z"/>
	<path class="st11" d="M89.6,74.8H108v18.6H89.6V74.8z M111.6,245.2H130v18.6h-18.4V245.2z M89.6,245.2H108v18.6H89.6V245.2z
		 M111.6,224H130v18.6h-18.4V224z M89.6,224H108v18.6H89.6V224z M111.6,202.4H130v18.9h-18.4V202.4z M89.6,202.4H108v18.9H89.6
		V202.4z M111.6,181.2H130v18.6h-18.4V181.2z M89.6,181.2H108v18.6H89.6V181.2z M111.6,160H130v18.6h-18.4V160z M89.6,160H108v18.6
		H89.6V160z M111.6,138.8H130v18.6h-18.4V138.8z M89.6,138.8H108v18.6H89.6V138.8z M111.6,117.2H130v18.6h-18.4V117.2z M89.6,117.2
		H108v18.6H89.6V117.2z M111.6,96H130v18.6h-18.4V96z M89.6,96H108v18.6H89.6V96z M111.6,74.8H130v18.6h-18.4V74.8z"/>
	<rect x="357.1" y="284.4" class="st12" width="55" height="39.5"/>
	<rect x="361.9" y="289.3" class="st13" width="45.5" height="29.9"/>
	<rect x="420.5" y="270.4" class="st12" width="55" height="39.5"/>
	<rect x="425.3" y="275.3" class="st13" width="45.5" height="29.9"/>
	<rect x="343.2" y="200.8" class="st14" width="124.8" height="89.8"/>
	<rect x="353.8" y="211.6" class="st13" width="103.2" height="67.9"/>
	<path class="st15" d="M227.1,5.5H121c-9.1,0-16.2,7.2-16.2,16v62c0,9.1,7.1,16.3,16.2,16.3h81.5l23.6,30.7V99.9h1
		c8.7,0,16.2-7.2,16.2-16.3v-62C243.2,12.7,235.8,5.5,227.1,5.5z"/>
	<g transform="matrix(0.999998 0 0 1 -395.915 -526.481)">
		<g>
			<path d="M539.7,566.8c0.3,0.3,0.4,0.7,0.4,1.1v14.8c0,0.4-0.2,0.8-0.5,1.1c-0.3,0.3-0.7,0.4-1.2,0.4c-0.4,0-0.8-0.1-1.1-0.4
				c-0.3-0.3-0.5-0.7-0.5-1.1v-6h-8.2v6c0,0.4-0.2,0.8-0.5,1.1c-0.3,0.3-0.7,0.4-1.1,0.4c-0.5,0-0.8-0.1-1.1-0.4
				c-0.3-0.3-0.4-0.7-0.4-1.1V568c0-0.4,0.2-0.8,0.5-1.1c0.3-0.3,0.7-0.4,1.2-0.4c0.4,0,0.8,0.1,1.1,0.4c0.3,0.3,0.5,0.7,0.5,1.1
				v5.9h8.2V568c0-0.4,0.2-0.8,0.5-1.1c0.3-0.3,0.7-0.4,1.1-0.4C539,566.4,539.4,566.5,539.7,566.8z"/>
			<path d="M556.9,566.8c0.3,0.3,0.4,0.6,0.4,1.1s-0.1,0.8-0.4,1.1c-0.3,0.3-0.7,0.4-1.1,0.4h-4v13.5c0,0.4-0.2,0.8-0.5,1.1
				c-0.3,0.3-0.7,0.4-1.2,0.4c-0.5,0-0.9-0.1-1.2-0.4c-0.3-0.3-0.5-0.7-0.5-1.1v-13.5h-4c-0.5,0-0.8-0.1-1.1-0.4
				c-0.3-0.3-0.4-0.6-0.4-1.1c0-0.4,0.2-0.8,0.4-1.1c0.3-0.3,0.7-0.4,1.1-0.4h11.4C556.2,566.4,556.6,566.5,556.9,566.8z"/>
			<path d="M576.7,566.8c0.3,0.3,0.5,0.7,0.5,1.1v14.9c0,0.4-0.1,0.8-0.4,1.1c-0.3,0.3-0.7,0.4-1.2,0.4c-0.5,0-0.9-0.1-1.2-0.4
				c-0.3-0.3-0.4-0.7-0.4-1.1v-10.3l-4.2,6.5c-0.2,0.2-0.4,0.4-0.6,0.5s-0.5,0.2-0.7,0.2c-0.2,0-0.4,0-0.7-0.2
				c-0.2-0.1-0.4-0.3-0.6-0.5l-4.2-6.7v10.6c0,0.5-0.1,0.8-0.4,1.1c-0.3,0.3-0.6,0.4-1.1,0.4c-0.4,0-0.8-0.1-1.1-0.4
				c-0.3-0.3-0.4-0.7-0.4-1.1v-14.9c0-0.4,0.2-0.8,0.5-1.1c0.3-0.3,0.7-0.5,1.1-0.5c0.3,0,0.5,0.1,0.8,0.2c0.3,0.1,0.5,0.3,0.6,0.5
				l5.6,8.6l5.8-8.6c0.1-0.2,0.3-0.4,0.6-0.5c0.2-0.1,0.5-0.2,0.7-0.2C576,566.4,576.4,566.5,576.7,566.8z"/>
			<path d="M592.1,581.8c0.3,0.3,0.4,0.6,0.4,1.1c0,0.4-0.2,0.8-0.4,1.1c-0.3,0.3-0.7,0.4-1.1,0.4h-8.3c-0.4,0-0.8-0.1-1.1-0.4
				c-0.3-0.3-0.4-0.7-0.4-1.1V568c0-0.4,0.2-0.8,0.5-1.1c0.3-0.3,0.7-0.4,1.2-0.4c0.4,0,0.8,0.1,1.1,0.4c0.3,0.3,0.5,0.7,0.5,1.1
				v13.4h6.7C591.4,581.4,591.8,581.5,592.1,581.8z"/>
			<path d="M610.9,573.1c0.9,0.5,1.6,1.2,2.2,2.1c0.5,0.9,0.8,1.9,0.8,3c0,1.1-0.3,2.2-1,3.2s-1.5,1.8-2.6,2.3
				c-1.1,0.6-2.2,0.9-3.5,0.9c-0.7,0-1.4-0.1-2.1-0.3c-0.7-0.2-1.3-0.5-1.7-0.8c-0.2-0.2-0.4-0.4-0.5-0.7c-0.1-0.3-0.2-0.6-0.2-0.9
				c0-0.3,0.1-0.6,0.4-0.8c0.3-0.2,0.6-0.4,1-0.4c0.3,0,0.7,0.2,1.2,0.5c0.7,0.4,1.4,0.7,1.9,0.7c0.7,0,1.4-0.2,2-0.5
				c0.6-0.3,1.1-0.8,1.5-1.3c0.4-0.5,0.6-1.1,0.6-1.8c0-0.9-0.3-1.7-0.9-2.3c-0.6-0.6-1.4-0.9-2.3-0.9c-0.4,0-0.7,0.1-1.1,0.2
				c-0.3,0.1-0.7,0.3-1.1,0.5c-0.3,0.2-0.6,0.3-0.7,0.3c-0.2,0.1-0.4,0.1-0.6,0.1c-0.7,0-1.1-0.2-1.4-0.5c-0.3-0.4-0.4-0.8-0.4-1.3
				c0-0.2,0-0.3,0-0.4l0.8-6.4c0.1-0.4,0.2-0.7,0.5-0.9c0.3-0.2,0.6-0.3,1-0.3h7.4c0.4,0,0.8,0.1,1,0.4c0.3,0.3,0.4,0.6,0.4,1
				c0,0.4-0.1,0.7-0.4,1s-0.6,0.4-1,0.4h-6.4l-0.5,3.7c0.3-0.2,0.7-0.3,1.2-0.5c0.5-0.1,1-0.2,1.4-0.2
				C608.9,572.3,610,572.6,610.9,573.1z"/>
		</g>
	</g>
	<path class="st14" d="M270.1,235.4c0.6,1.6,1,2.9,1.3,4.6h7.1l0.3,8.8l-7.1,0.3c-0.3,1.6-0.6,3.3-1.3,4.9l6.1,3.6l-4.5,7.8
		l-5.8-3.6c-1,1.3-2.3,2.3-3.6,3.6l3.6,5.9l-7.8,4.6l-3.2-5.9c-1.6,0.7-3.2,1-4.9,1.3v6.5h-9.1v-6.2c-1.6-0.3-3.2-0.7-4.9-1.3
		l-3.2,5.5l-7.8-4.6l3.2-5.5c-1.3-1-2.3-2-3.6-3.3l-5.2,3.3l-4.5-7.8l5.2-3.3c-0.6-1.6-1-3.3-1.3-4.9h-6.1V241l6.1-0.3
		c0.3-1.6,0.6-3.6,1.3-5.2l-5.5-3.3l4.5-7.8l5.8,3.3c1-1.3,2.3-2.3,3.6-3.3l-3.6-5.9l8.1-4.6l3.2,5.9c1.6-0.3,2.9-0.7,4.5-1v-6.9
		h9.1v6.9c1.6,0.3,2.9,1,4.5,1.3l3.6-6.2l7.8,4.6l-3.6,6.2c1,1,1.9,2,2.9,3.3l6.1-3.9l4.5,7.8L270.1,235.4z"/>
	<path class="st16" d="M257.5,237.8c3.9,6.5,1.7,15-4.7,18.8c-6.5,3.9-14.8,1.8-18.7-4.8c-3.9-6.5-1.7-15,4.7-18.8
		C245.3,229.2,253.7,231.3,257.5,237.8z"/>
	<path class="st17" d="M255,239.4c3,5.1,1.4,11.7-3.7,14.7c-5,3-11.6,1.4-14.6-3.7c-3-5.1-1.4-11.7,3.7-14.7
		C245.4,232.6,252,234.3,255,239.4z"/>
	<path class="st14" d="M309.5,225c0.3,0.7,0.6,1.6,0.6,2.3h3.9v4.6h-3.6c-0.3,1-0.3,1.6-0.6,2.6l3.2,1.6l-2.6,4.2l-2.9-2
		c-0.3,0.7-1,1.3-1.6,2l1.6,2.9l-3.9,2.3l-1.6-2.9c-1,0.3-1.6,0.7-2.6,0.7v3.3H295v-3.3c-0.6,0-1.6-0.3-2.6-0.7l-1.3,2.9l-4.2-2.3
		l1.6-2.9c-0.6-0.3-1.3-1-1.6-1.6l-2.6,1.6l-2.6-3.9l2.9-1.6c-0.3-0.7-0.6-1.6-1-2.6h-2.9v-4.6h2.9c0.3-1,0.6-1.6,1-2.6l-2.9-1.6
		l2.3-3.9l2.9,1.6c0.6-0.7,1.3-1.3,1.9-2l-1.9-2.9l4.2-2.3l1.6,3.3c0.6-0.3,1.6-0.7,2.3-0.7v-3.6h4.5v3.6c1,0.3,1.6,0.3,2.3,0.7
		l1.9-3.3l3.9,2.3l-1.6,3.3c0.3,0.7,1,1,1.3,1.6l3.2-2l2.3,3.9L309.5,225z"/>
	<path class="st16" d="M303.3,226.2c2,3.3,0.9,7.6-2.4,9.6c-3.3,2-7.5,0.9-9.5-2.4c-2-3.3-0.9-7.6,2.4-9.6
		C297.1,221.8,301.3,222.9,303.3,226.2z"/>
	<path class="st17" d="M302,227c1.5,2.6,0.7,5.9-1.9,7.5c-2.6,1.5-5.9,0.7-7.4-1.9c-1.5-2.6-0.7-5.9,1.9-7.5
		C297.1,223.5,300.4,224.4,302,227z"/>
	<path class="st14" d="M236.1,163.6c0.6,2,1,3.6,1.3,5.5l9.1-0.3v11.1l-8.7,0.3c-0.3,2-0.6,3.9-1.3,5.9l7.4,4.6l-5.5,9.5l-7.4-4.2
		c-1,1.6-2.6,2.9-3.9,4.2l4.2,7.2l-9.7,5.6l-3.9-6.9c-1.9,0.7-3.9,1.3-5.8,1.6v7.8h-11V208c-2.3-0.3-4.2-1-6.1-1.6l-3.9,6.5
		l-9.4-5.6l3.6-6.5c-1.3-1.3-2.6-2.6-3.9-3.9l-6.5,3.6l-5.8-9.5l6.5-3.9c-0.6-2-1.3-3.9-1.6-5.9h-7.4l-0.3-11.1h7.8
		c0.3-2.3,1-4.6,1.6-6.5l-6.5-3.9l5.5-9.8l6.8,3.9c1.3-1.3,2.6-2.9,4.2-3.9l-3.9-7.2l9.4-5.5l4.2,7.2c1.9-0.7,3.9-1,5.8-1.3v-8.5h11
		v8.8c1.9,0.3,3.6,0.6,5.5,1.3l4.2-7.5l9.7,5.5l-4.5,7.8c1.3,1,2.6,2.3,3.6,3.6l7.8-4.6l5.5,9.5L236.1,163.6z"/>
	<path class="st16" d="M220.6,166.4c4.7,8,2.1,18.3-5.8,23.1c-7.9,4.8-18.2,2.2-22.9-5.8c-4.7-8-2.1-18.3,5.8-23.1
		C205.6,155.8,215.9,158.4,220.6,166.4z"/>
	<path class="st17" d="M217.5,168.3c3.7,6.2,1.7,14.3-4.5,18c-6.2,3.7-14.2,1.7-17.8-4.5s-1.7-14.3,4.5-18
		C205.8,160.1,213.8,162.1,217.5,168.3z"/>
	<rect x="269.4" y="21.9" class="st14" width="195.7" height="148.9"/>
	<polygon class="st18" points="269.4,21.9 465.1,21.9 465.1,41.8 269.4,41.8 	"/>
	<polygon class="st19" points="269.4,53.5 465.1,53.5 465.1,41.8 269.4,41.8 	"/>
	<rect x="284.9" y="124.1" class="st20" width="76.9" height="8.6"/>
	<rect x="367.1" y="124.1" class="st20" width="27.2" height="8.6"/>
	<rect x="400.1" y="124.1" class="st20" width="49.6" height="8.6"/>
	<rect x="362.9" y="136.2" class="st20" width="76.9" height="8.6"/>
	<rect x="330.6" y="136.2" class="st20" width="27.2" height="8.6"/>
	<rect x="275.2" y="136.2" class="st20" width="49.6" height="8.6"/>
	<rect x="380.4" y="147.3" class="st20" width="76.9" height="8.6"/>
	<rect x="348" y="147.3" class="st20" width="27.2" height="8.6"/>
	<rect x="292.7" y="147.3" class="st20" width="49.6" height="8.6"/>
	<path class="st21" d="M283.7,44.1c2,0,3.6,1.6,3.6,3.6s-1.6,3.6-3.6,3.6c-2,0-3.6-1.6-3.6-3.6S281.7,44.1,283.7,44.1z"/>
	<path class="st22" d="M293.4,44.1c2,0,3.6,1.6,3.6,3.6s-1.6,3.6-3.6,3.6c-2,0-3.6-1.6-3.6-3.6S291.4,44.1,293.4,44.1z"/>
	<path class="st23" d="M302.4,44.1c2,0,3.6,1.6,3.6,3.6s-1.6,3.6-3.6,3.6s-3.6-1.6-3.6-3.6S300.4,44.1,302.4,44.1z"/>
	<polygon class="st24" points="316.6,50.9 462.2,50.9 462.2,44.7 316.6,44.7 	"/>
	<rect x="278.8" y="60.4" class="st25" width="177.2" height="56.2"/>
	<path class="st9" d="M475.4,265.1h-2.3v-64.3c0-2.9-2.3-5.2-5.2-5.2h-23.3V176h20.4c2.9,0,5.2-2.3,5.2-5.2V21.9
		c0-2.9-2.3-5.2-5.2-5.2H269.4c-2.9,0-5.2,2.3-5.2,5.2v27.8h-15.9V21.6c0-11.8-9.7-21.6-21.3-21.6H121c-12,0-21.3,9.8-21.3,21.6
		v28.1H65c-6.5,0-11.6,5.5-11.6,12.1v240c0,6.9,5.2,12.1,11.6,12.1h141.3v8.5c-14.6,2-30.4,5.5-43.3,11.8c-9.1,4.2-21,11.8-21,23.5
		c0,0.7,0,1.3,0,2c0,0.7,0,1,0,1.6c0,0.7,0,1.3,0,1.6c0,0.7,0,1.3,0,2c0,14.7,19.1,23.5,30.7,27.4c21,7.5,45.9,10.1,68.2,10.8
		c2.3,0,4.9,0,7.1,0c23.9,0,50.5-2.6,73.1-9.8c12-4.2,33.3-13.1,33.3-28.4c0-0.7,0-1.3-0.3-2c0.3-0.3,0.3-1,0.3-1.6
		c0-0.6,0-1-0.3-1.6c0.3-0.7,0.3-1.3,0.3-2c0-11.8-12-19.3-21.3-23.5c-12.9-6.2-28.8-9.8-43-11.8v-8.5h61.8v10.1
		c0,2.9,2.6,5.2,5.2,5.2h55c2.9,0,5.5-2.3,5.5-5.2v-9.8c0.6,0.7,1.9,1.3,2.9,1.3h55c2.9,0,5.2-2.6,5.2-5.5v-39.5
		C480.6,267.4,478.4,265.1,475.4,265.1z M475.4,309.9h-55v-1.3h-8.4v15.3h-55v-15.3h-72.1v18.3c37.5,4.6,64.4,16.7,64.4,30.7
		c0,0.7-0.3,1.3-0.3,2c0,0.3,0.3,1,0.3,1.6c0,0.7-0.3,1.3-0.3,1.6c0,0.7,0.3,1.3,0.3,2c0,18.3-45.3,33-101.2,33c-2.3,0-4.9,0-7.1,0
		c-52.4-1.3-93.8-15.7-93.8-33c0-0.7,0-1.3,0-2c0-0.3,0-1,0-1.6c0-0.6,0-1.3,0-1.6c0-0.7,0-1.3,0-2c0-14,26.8-26.1,64.4-30.7v-18.3
		H65c-3.6,0-6.5-2.9-6.5-6.9v-240c0-3.9,2.9-6.9,6.5-6.9h39.8V21.5c0-8.8,7.1-16,16.2-16h106.1c8.7,0,16.2,7.2,16.2,16v33.3h26.2
		v-1.3V41.8V21.9h195.7v19.9v11.8v117.2h-25.5v30H468v69.6h7.4L475.4,309.9L475.4,309.9z"/>
	<path class="st26" d="M69.5,413.4c31,0,62.4,0,93.5,0c31.1,0,62.4,0,93.5,0c31.4,0,62.4,0,93.8,0c31,0,62.4,0,93.5,0
		c5.2,7.2,10.3,14,15.5,21.2c5.5,7.2,10.3,14,15.5,21.2c5.2,6.9,10.7,14,15.8,21.2c5.2,6.9,10.4,14,15.5,21.2
		c-41.7,0-83.4,0-125.2,0c-41.7,0-83.4,0-125.2,0c-41.4,0-83.1,0-124.8,0s-83.4,0-124.8,0c5.2-7.2,10.4-14.4,15.8-21.2
		c5.2-7.2,10.4-14.4,15.9-21.2c5.2-7.2,10.7-14.4,15.8-21.2C58.9,427.4,64.4,420.6,69.5,413.4z"/>
	<path class="st5" d="M7.8,497h496.5c1.6,0,2.6,2.3,2.6,4.9l0,0c0,2.6-1,4.9-2.6,4.9H7.8c-1.6,0-2.6-2.3-2.6-4.9l0,0
		C5.2,499.3,6.1,497,7.8,497z"/>
	<path class="st10" d="M7.8,497.6c-1.6,0-1.9,3.3-1.9,4.2s0.3,4.2,1.9,4.2h496.5c1.6,0,2.3-3.3,2.3-4.2s-0.6-4.2-2.3-4.2H7.8z"/>
	<path class="st27" d="M249.4,413.4h7.1c31.4,0,62.4,0,93.8,0c31,0,62.4,0,93.5,0c5.2,7.2,10.3,14,15.5,21.2
		c5.5,7.2,10.3,14,15.5,21.2c5.2,6.9,10.7,14,15.8,21.2c5.2,6.9,10.4,14,15.5,21.2c-41.7,0-83.4,0-125.2,0c-41.7,0-83.4,0-125.2,0
		h-6.5L249.4,413.4L249.4,413.4z"/>
	<path class="st5" d="M43.7,476.4c23.9,0,47.9,0,72.1,0c-1.6,2.9-2.9,5.9-4.2,8.8c-24.6,0-49.2-0.3-73.7-0.3
		C39.5,482.3,41.7,479.3,43.7,476.4z"/>
	<path class="st5" d="M120.6,476.4c7.8,0,15.5,0,23.3,0.3c-1.3,2.6-2.3,5.5-3.2,8.5c-8.1,0-16.2,0-23.9,0
		C118.1,482.3,119.3,479.3,120.6,476.4z"/>
	<path class="st5" d="M147.8,476.7c7.8,0,15.5,0,23,0c-1,2.9-1.6,5.9-2.6,8.8c-7.8,0-15.9,0-23.6-0.3
		C145.5,482.3,146.5,479.3,147.8,476.7z"/>
	<path class="st5" d="M174.7,476.7c7.8,0,15.5,0,23.3,0c-0.6,2.9-1.6,5.9-1.9,8.8c-8.1,0-15.8,0-23.9,0
		C172.7,482.6,173.7,479.7,174.7,476.7z"/>
	<path class="st5" d="M201.8,476.7c7.4,0,15.2,0.3,23,0.3c-0.3,2.9-0.6,5.9-1.3,8.8c-7.8,0-15.9-0.3-23.6-0.3
		C200.2,482.6,200.9,479.7,201.8,476.7z"/>
	<path class="st5" d="M228.7,477.1c7.8,0,15.5,0,23.3,0c-0.3,2.9-0.6,5.9-0.6,8.8c-8.1,0-15.9,0-23.9,0
		C227.7,482.9,228,480,228.7,477.1z"/>
	<path class="st5" d="M255.5,477.1c7.8,0,15.5,0,23.3,0.3c0,2.9,0,5.9,0,8.8c-7.8,0-15.9-0.3-23.6-0.3
		C255.2,482.9,255.5,480,255.5,477.1z"/>
	<path class="st5" d="M282.7,477.4c7.8,0,15.5,0,23.3,0c0,2.9,0.3,5.9,0.6,8.8c-8.1,0-15.8,0-23.9,0
		C282.7,483.3,282.7,480.3,282.7,477.4z"/>
	<path class="st5" d="M309.5,477.4c7.8,0,15.5,0,23.3,0c0.3,2.9,1,6.2,1.6,9.1c-8.1,0-16.2-0.3-23.9-0.3
		C310.2,483.3,309.9,480.3,309.5,477.4z"/>
	<path class="st5" d="M336.7,477.4c7.8,0.3,15.5,0.3,23.3,0.3c0.6,2.9,1.3,5.9,1.9,8.8c-8.1,0-15.9,0-23.9,0
		C337.7,483.6,337,480.7,336.7,477.4z"/>
	<path class="st5" d="M363.5,477.7c7.8,0,15.5,0,23.3,0c1,2.9,1.9,5.9,2.9,9.1c-8.1-0.3-15.8-0.3-23.9-0.3
		C365.2,483.6,364.2,480.7,363.5,477.7z"/>
	<path class="st5" d="M390.4,477.7c24.3,0,48.2,0,72.1,0.3c1.6,2.9,3.2,5.9,4.9,8.8c-24.6,0-49.2,0-73.7,0
		C392.3,483.6,391.4,480.7,390.4,477.7z"/>
	<path class="st5" d="M112.9,465.3c7.8,0,15.2,0,22.6,0c-1.6,2.9-2.9,5.9-4.5,8.8c-7.8,0-15.5,0-23-0.3
		C109.6,470.9,111.3,468.2,112.9,465.3z"/>
	<path class="st5" d="M139.1,465.3c7.4,0,14.9,0,22.3,0c-1.3,2.9-2.3,5.9-3.6,8.8c-7.8,0-15.5,0-23.3,0
		C136.2,471.2,137.8,468.2,139.1,465.3z"/>
	<path class="st5" d="M165.3,465.3c7.4,0,14.9,0,22.3,0c-1,2.9-1.9,5.9-2.9,8.8c-7.8,0-15.5,0-23.3,0
		C162.7,471.2,164,468.2,165.3,465.3z"/>
	<path class="st5" d="M191.1,465.3c7.4,0.3,14.9,0.3,22.3,0.3c-0.6,2.9-1.3,5.9-2.3,8.8c-7.4,0-15.2,0-23-0.3
		C189.2,471.2,190.2,468.2,191.1,465.3z"/>
	<path class="st5" d="M217.3,465.6c7.4,0,14.9,0,22.3,0c-0.6,2.9-1,5.9-1.6,8.8c-7.8,0-15.2,0-23,0
		C215.7,471.5,216.4,468.6,217.3,465.6z"/>
	<path class="st5" d="M243.2,465.6c7.4,0,14.9,0,22.3,0c0,3.3-0.3,6.2-0.6,9.1c-7.8-0.3-15.5-0.3-23-0.3
		C242.3,471.5,242.9,468.6,243.2,465.6z"/>
	<path class="st5" d="M269.4,465.6c7.4,0.3,14.9,0.3,22.3,0.3c0,2.9,0,5.9,0,8.8c-7.8,0-15.5,0-23,0
		C268.8,471.8,269.1,468.9,269.4,465.6z"/>
	<path class="st5" d="M295.3,466c7.4,0,14.9,0,22.6,0c0,2.9,0.3,5.9,0.6,8.8c-7.8,0-15.5,0-23.3,0
		C295.3,471.8,295.3,468.9,295.3,466z"/>
	<path class="st5" d="M321.5,466c7.4,0,14.9,0,22.3,0c0.3,3.3,1,6.2,1.3,9.1c-7.8,0-15.2,0-23-0.3
		C321.8,471.8,321.5,468.9,321.5,466z"/>
	<path class="st5" d="M347.4,466c7.4,0.3,15.2,0.3,22.3,0.3c1,2.9,1.6,5.9,2.3,8.8c-7.8,0-15.2,0-23,0
		C348.3,472.2,348,469.2,347.4,466z"/>
	<path class="st5" d="M373.6,466.3c7.4,0,14.9,0,22.3,0c1,2.9,1.9,5.9,2.9,8.8c-7.8,0-15.2,0-23,0
		C374.9,472.2,374.2,469.2,373.6,466.3z"/>
	<path class="st5" d="M399.4,466.3c19.1,0,38.2,0,57.2,0c1.3,2.9,2.9,6.2,4.5,9.1c-19.7,0-39.1,0-58.5-0.3
		C401.4,472.2,400.4,469.2,399.4,466.3z"/>
	<path class="st5" d="M52.4,465c19.1,0,38.2,0,57.2,0.3c-1.9,2.9-3.6,5.5-5.5,8.5c-19.4,0-39.1,0-58.5,0
		C47.9,470.9,50.1,467.9,52.4,465z"/>
	<path class="st5" d="M94.4,453.9c7.1,0,14.2,0,21.7,0c-1.6,2.9-3.6,5.9-5.2,8.8c-7.4,0-14.9,0-22.3,0
		C90.6,459.8,92.5,456.8,94.4,453.9z"/>
	<path class="st5" d="M119.3,453.9c7.4,0,14.6,0,21.7,0c-1.3,2.9-2.9,5.9-4.2,8.8c-7.4,0-14.9,0-22.3,0
		C116.1,459.8,117.7,456.8,119.3,453.9z"/>
	<path class="st5" d="M144.6,453.9c7.1,0,14.6,0.3,21.7,0.3c-1.3,2.9-2.3,5.5-3.6,8.5c-7.4,0-14.9,0-22.3,0
		C141.7,459.8,143.3,456.8,144.6,453.9z"/>
	<path class="st5" d="M169.8,454.2c7.1,0,14.2,0,21.3,0c-0.6,2.9-1.6,5.9-2.6,8.8c-7.4,0-14.9,0-22.3-0.3
		C167.2,460.1,168.5,457.1,169.8,454.2z"/>
	<path class="st5" d="M194.7,454.2c7.4,0,14.6,0,21.7,0c-0.6,2.9-1.3,5.9-2.3,8.8c-7.4,0-14.6,0-22,0
		C193.1,460.1,193.7,457.1,194.7,454.2z"/>
	<path class="st5" d="M219.9,454.2c7.1,0,14.2,0,21.7,0c-0.6,2.9-1,5.9-1.6,8.8c-7.4,0-14.9,0-22.3,0
		C218.6,460.1,219.3,457.1,219.9,454.2z"/>
	<path class="st5" d="M245.2,454.2c7.1,0,14.2,0,21.7,0.3c-0.3,2.9-0.6,5.9-1,8.8c-7.4,0-14.9,0-22.3-0.3
		C244.2,460.1,244.5,457.1,245.2,454.2z"/>
	<path class="st5" d="M270.1,454.5c7.1,0,14.6,0,21.7,0c0,2.9,0,5.9,0,8.8c-7.4,0-14.9,0-22.3,0
		C269.7,460.4,269.7,457.5,270.1,454.5z"/>
	<path class="st5" d="M295.3,454.5c7.1,0,14.2,0,21.7,0c0,2.9,0.3,5.9,0.6,8.8c-7.4,0-14.9,0-22.3,0
		C295.3,460.4,295.3,457.5,295.3,454.5z"/>
	<path class="st5" d="M320.2,454.5c7.4,0,14.6,0,21.7,0c0.6,2.9,1,5.9,1.6,9.1c-7.4,0-14.9-0.3-22.3-0.3
		C320.8,460.4,320.5,457.5,320.2,454.5z"/>
	<path class="st5" d="M345.4,454.5c7.1,0,14.6,0,21.7,0.3c0.6,2.9,1.3,5.9,2.3,8.8c-7.4,0-14.9,0-22.3,0
		C346.4,460.7,346.1,457.5,345.4,454.5z"/>
	<path class="st5" d="M370.7,454.9c7.1,0,14.2,0,21.7,0c1,2.9,1.9,5.9,2.9,8.8c-7.4,0-14.9,0-22.3,0
		C372.3,460.7,371.3,457.8,370.7,454.9z"/>
	<path class="st5" d="M395.6,454.9c7.4,0,14.6,0,21.7,0c1.3,2.9,2.6,5.9,3.6,8.8c-7.1,0-14.6,0-22,0
		C397.8,460.7,396.5,457.8,395.6,454.9z"/>
	<path class="st5" d="M420.8,454.9c10,0,20.1,0,29.8,0c1.6,2.9,3.2,5.9,4.9,8.8c-10.4,0-20.7,0-30.7,0
		C423.4,460.7,422.1,457.8,420.8,454.9z"/>
	<path class="st5" d="M61.1,453.9c9.7,0,19.7,0,29.8,0c-1.9,2.9-3.9,5.9-5.8,8.8c-10.4,0-20.4,0-30.7,0
		C56.6,459.8,58.9,456.8,61.1,453.9z"/>
	<path class="st5" d="M68.6,442.4c7.1,0,13.9,0,21,0c-1.6,2.9-3.2,5.9-5.2,8.8c-7.4,0-14.6,0-21.7,0C65,448.3,67,445.4,68.6,442.4z"
		/>
	<path class="st5" d="M92.8,442.4c6.8,0,13.9,0,21,0c-1.6,2.9-2.9,5.9-4.9,8.8c-7.1,0-14.2,0-21.3,0
		C89.6,448.3,91.2,445.4,92.8,442.4z"/>
	<path class="st5" d="M117.1,442.4c6.8,0.3,13.9,0.3,20.7,0.3c-1,2.9-2.3,5.9-3.6,8.5c-7.4,0-14.6,0-21.7,0
		C114.2,448.3,115.8,445.4,117.1,442.4z"/>
	<path class="st5" d="M141.3,442.8c6.8,0,13.9,0,20.7,0c-0.6,2.9-1.9,5.9-2.9,8.8c-7.4,0-14.6,0-21.7,0
		C139.1,448.6,140.4,445.7,141.3,442.8z"/>
	<path class="st5" d="M165.6,442.8c6.8,0,13.9,0,20.7,0c-0.6,2.9-1.3,5.9-2.3,8.8c-7.4,0-14.6,0-21.7,0
		C163.7,448.6,164.6,445.7,165.6,442.8z"/>
	<path class="st5" d="M189.9,442.8c6.8,0,13.9,0,20.7,0c-0.3,2.9-1,5.9-1.6,8.8c-7.1,0-14.2,0-21.7,0
		C188.2,448.6,189.2,445.7,189.9,442.8z"/>
	<path class="st5" d="M214.1,442.8c6.8,0,13.9,0,20.7,0c-0.3,2.9-0.6,5.9-1,8.8c-7.1,0-14.6,0-21.7,0
		C213.1,448.6,213.5,445.7,214.1,442.8z"/>
	<path class="st5" d="M238.4,442.8c6.8,0,13.9,0,20.7,0c0,2.9,0,5.9-0.3,9.1c-7.1-0.3-14.6-0.3-21.7-0.3
		C237.7,448.6,238,445.7,238.4,442.8z"/>
	<path class="st5" d="M262.6,442.8c6.8,0,13.9,0.3,20.7,0.3c0,2.9,0.3,5.9,0.3,8.8c-7.4,0-14.2,0-21.7,0
		C262.3,449,262.6,445.7,262.6,442.8z"/>
	<path class="st5" d="M286.6,443.1c7.1,0,14.2,0,21,0c0.3,2.9,0.6,5.9,1,8.8c-7.4,0-14.6,0-21.7,0C286.9,449,286.9,446,286.6,443.1z
		"/>
	<path class="st5" d="M311.1,443.1c6.8,0,13.6,0,20.7,0c0.6,2.9,1,5.9,1.6,8.8c-7.4,0-14.6,0-21.7,0
		C311.8,449,311.5,446,311.1,443.1z"/>
	<path class="st5" d="M335.1,443.1c7.1,0,13.9,0,21,0c1,2.9,1.6,5.9,2.3,8.8c-7.4,0-14.6,0-21.7,0C336.4,449,335.7,446,335.1,443.1z
		"/>
	<path class="st5" d="M359.3,443.1c7.1,0,14.2,0,21,0c1,2.9,1.9,5.9,2.9,9.1c-7.1,0-14.2,0-21.7-0.3C361,449,360.3,446,359.3,443.1z
		"/>
	<path class="st5" d="M384.2,443.1c6.8,0,13.9,0,20.7,0c1.3,2.9,2.3,6.2,3.6,9.1c-7.1,0-14.2,0-21.3,0
		C386.2,449.3,385.2,446,384.2,443.1z"/>
	<path class="st5" d="M409.1,443.1c12,0,23.6,0,35.6,0c1.6,3.3,2.9,6.2,4.5,9.1c-12.3,0-24.3,0-36.5,0
		C411.4,449.3,410.4,446,409.1,443.1z"/>
	<path class="st5" d="M87.3,428.7c3.6,0,7.4,0,11,0c2.3,0,3.9,0.7,3.6,1.6l0,0c-0.7,1-2.9,1.6-4.9,1.6c-3.9,0-7.8,0-11.6,0
		c-2.3,0-3.6-0.7-3.2-1.6l0,0C82.8,429.4,85.1,428.7,87.3,428.7z"/>
	<path class="st5" d="M109,428.7c3.9,0,7.4,0,11.3,0c2.3,0,3.6,0.7,3.2,1.6l0,0c-0.3,1-2.3,2-4.5,2c-3.9,0-7.8-0.3-11.3-0.3
		c-2.3,0-3.9-0.7-3.6-1.6l0,0C104.8,429.4,106.7,428.7,109,428.7z"/>
	<path class="st5" d="M131,428.7c3.6,0,7.4,0,11,0c2.3,0,3.9,0.7,3.6,1.6l0,0c-0.3,1-2.3,2-4.5,2c-3.9,0-7.8,0-11.3,0
		c-2.3,0-3.9-1-3.6-2l0,0C126.5,429.4,128.7,428.7,131,428.7z"/>
	<path class="st5" d="M152.7,428.7c3.9,0,7.4,0,11.3,0c2.3,0,3.9,0.7,3.6,1.6l0,0c-0.3,1-2.3,2-4.5,2c-3.9,0-7.4,0-11.3,0
		c-2.3,0-3.9-1-3.6-2l0,0C148.5,429.4,150.4,428.7,152.7,428.7z"/>
	<path class="st5" d="M174.7,428.7c3.6,0,7.4,0,11,0c2.3,0,3.9,0.7,3.9,1.6l0,0c-0.3,1-2.3,2-4.5,2c-3.9,0-7.4,0-11.3,0
		c-2.3,0-3.9-1-3.6-2l0,0C170.5,429.4,172.4,428.7,174.7,428.7z"/>
	<path class="st5" d="M196.3,428.7c3.9,0,7.4,0,11.3,0c2.3,0,3.9,0.7,3.9,1.6l0,0c0,1-2.3,2-4.5,2c-3.6,0-7.4,0-11.3,0
		c-2.3,0-3.9-1-3.6-2l0,0C192.1,429.4,194.1,428.7,196.3,428.7z"/>
	<path class="st5" d="M218.3,428.7c3.6,0,7.4,0,11.3,0c1.9,0,3.9,0.7,3.9,1.6l0,0c-0.3,1-1.9,2-4.2,2c-3.9,0-7.8,0-11.3,0
		c-2.3,0-4.2-1-3.9-2l0,0C214.1,429.4,216.1,428.7,218.3,428.7z"/>
	<path class="st5" d="M240,428.7c3.9,0,7.4,0,11.3,0c2.3,0,3.9,0.7,4.2,1.6l0,0c0,1.3-1.9,2-4.2,2c-3.9,0-7.8,0-11.3,0
		c-2.3,0-4.2-1-4.2-2l0,0C236.1,429.4,237.7,428.7,240,428.7z"/>
	<path class="st5" d="M262,428.7c3.6,0,7.4,0,11.3,0c1.9,0,3.9,1,3.9,2l0,0c0.3,1-1.6,1.6-3.9,1.6c-3.9,0-7.4,0-11.3,0
		c-2.3,0-4.2-0.6-4.2-1.6l0,0C257.8,429.4,259.7,428.7,262,428.7z"/>
	<path class="st5" d="M283.7,428.7c3.9,0,7.4,0,11.3,0c2.3,0,4.2,1,4.2,2l0,0c0.3,1-1.6,1.6-3.9,1.6c-3.6,0-7.4,0-11.3,0
		c-2.3,0-3.9-0.6-4.2-1.6l0,0C279.8,429.7,281.4,428.7,283.7,428.7z"/>
	<path class="st5" d="M305.6,428.7c3.6,0,7.4,0,11.3,0c1.9,0,3.9,1,4.2,2l0,0c0.3,1-1.3,1.6-3.9,1.6c-3.6,0-7.4,0-11.3,0
		c-1.9,0-3.9-0.6-4.2-1.6l0,0C301.4,429.7,303.4,428.7,305.6,428.7z"/>
	<path class="st5" d="M327.3,428.7c3.9,0,7.4,0,11.3,0c2.3,0,4.2,1,4.5,2l0,0c0.3,1-1.3,1.6-3.6,1.6c-3.9,0-7.8,0-11.3,0
		c-2.3,0-4.2-0.6-4.5-1.6l0,0C323.4,429.7,325.1,428.7,327.3,428.7z"/>
	<path class="st5" d="M349.3,428.7c3.6,0,7.4,0,11.3,0c1.9,0,4.2,1,4.5,2l0,0c0.3,1-1.3,1.6-3.6,1.6c-3.9,0-7.4,0-11.3,0
		c-2.3,0-4.2-0.6-4.5-1.6l0,0C345.4,429.7,347,428.7,349.3,428.7z"/>
	<path class="st5" d="M371,428.7c3.9,0,7.4,0,11.3,0c2.3,0,4.5,1,4.9,2l0,0c0.3,1-1.3,2-3.6,2c-3.9,0-7.4-0.3-11.3-0.3
		c-2.3,0-4.2-0.6-4.5-1.6l0,0C367.4,429.7,369,428.7,371,428.7z"/>
	<path class="st5" d="M393,428.7c3.6,0,7.4,0,11.3,0c1.9,0,4.2,1,4.9,2l0,0c0.3,1-1.3,2-3.6,2c-3.6,0-7.4,0-11.3,0
		c-2.3,0-4.2-1-4.5-2l0,0C389.1,429.7,390.7,428.7,393,428.7z"/>
	<path class="st5" d="M415,429.1c3.6,0,7.4,0,11,0c2.3,0,4.5,0.7,5.2,1.6l0,0c0.3,1-1,2-3.2,2c-3.9,0-7.8,0-11.3,0
		c-2.3,0-4.5-1-5.2-2l0,0C411.1,429.7,412.7,429.1,415,429.1z"/>
	<path class="st5" d="M94.8,417c3.9,0,7.1,1,7.1,2c0,1.3-3.2,2-7.1,2c-3.9,0-7.1-0.7-7.1-2C87.7,418,90.9,417,94.8,417z"/>
	<path class="st5" d="M112.2,417.6c2.6,0,4.5,0.7,4.5,1.3c0,1-1.9,1.3-4.5,1.3c-2.9,0-4.9-0.3-4.9-1.3
		C107.4,418.3,109.3,417.6,112.2,417.6z"/>
	<path class="st6" d="M245.5,477.1c1.9,0,4.2,0,6.5,0c-0.3,2.9-0.6,5.9-0.6,8.8c-2.3,0-4.5,0-6.5,0
		C244.8,482.9,245.2,480,245.5,477.1z"/>
	<path class="st6" d="M255.5,477.1c7.8,0,15.5,0,23.3,0.3c0,2.9,0,5.9,0,8.8c-7.8,0-15.9-0.3-23.6-0.3
		C255.2,482.9,255.5,480,255.5,477.1z"/>
	<path class="st6" d="M282.7,477.4c7.8,0,15.5,0,23.3,0c0,2.9,0.3,5.9,0.6,8.8c-8.1,0-15.8,0-23.9,0
		C282.7,483.3,282.7,480.3,282.7,477.4z"/>
	<path class="st6" d="M309.5,477.4c7.8,0,15.5,0,23.3,0c0.3,2.9,1,6.2,1.6,9.1c-8.1,0-16.2-0.3-23.9-0.3
		C310.2,483.3,309.9,480.3,309.5,477.4z"/>
	<path class="st6" d="M336.7,477.4c7.8,0.3,15.5,0.3,23.3,0.3c0.6,2.9,1.3,5.9,1.9,8.8c-8.1,0-15.9,0-23.9,0
		C337.7,483.6,337,480.7,336.7,477.4z"/>
	<path class="st6" d="M363.5,477.7c7.8,0,15.5,0,23.3,0c1,2.9,1.9,5.9,2.9,9.1c-8.1-0.3-15.8-0.3-23.9-0.3
		C365.2,483.6,364.2,480.7,363.5,477.7z"/>
	<path class="st6" d="M390.4,477.7c24.3,0,48.2,0,72.1,0.3c1.6,2.9,3.2,5.9,4.9,8.8c-24.6,0-49.2,0-73.7,0
		C392.3,483.6,391.4,480.7,390.4,477.7z"/>
	<path class="st6" d="M246.8,465.6c6.1,0,12.6,0,18.8,0c0,3.3-0.3,6.2-0.6,9.1c-6.5-0.3-12.9-0.3-19.4-0.3
		C246.1,471.5,246.5,468.6,246.8,465.6z"/>
	<path class="st6" d="M269.4,465.6c7.4,0.3,14.9,0.3,22.3,0.3c0,2.9,0,5.9,0,8.8c-7.8,0-15.5,0-23,0
		C268.8,471.8,269.1,468.9,269.4,465.6z"/>
	<path class="st6" d="M295.3,466c7.4,0,14.9,0,22.6,0c0,2.9,0.3,5.9,0.6,8.8c-7.8,0-15.5,0-23.3,0
		C295.3,471.8,295.3,468.9,295.3,466z"/>
	<path class="st6" d="M321.5,466c7.4,0,14.9,0,22.3,0c0.3,3.3,1,6.2,1.3,9.1c-7.8,0-15.2,0-23-0.3
		C321.8,471.8,321.5,468.9,321.5,466z"/>
	<path class="st6" d="M347.4,466c7.4,0.3,15.2,0.3,22.3,0.3c1,2.9,1.6,5.9,2.3,8.8c-7.8,0-15.2,0-23,0
		C348.3,472.2,348,469.2,347.4,466z"/>
	<path class="st6" d="M373.6,466.3c7.4,0,14.9,0,22.3,0c1,2.9,1.9,5.9,2.9,8.8c-7.8,0-15.2,0-23,0
		C374.9,472.2,374.2,469.2,373.6,466.3z"/>
	<path class="st6" d="M399.4,466.3c19.1,0,38.2,0,57.2,0c1.3,2.9,2.9,6.2,4.5,9.1c-19.7,0-39.1,0-58.5-0.3
		C401.4,472.2,400.4,469.2,399.4,466.3z"/>
	<path class="st6" d="M248.1,454.2c6.1,0,12.3,0,18.8,0.3c-0.3,2.9-0.6,5.9-1,8.8c-6.1,0-12.6,0-18.8-0.3
		C247.4,460.1,247.8,457.1,248.1,454.2z"/>
	<path class="st6" d="M270.1,454.5c7.1,0,14.6,0,21.7,0c0,2.9,0,5.9,0,8.8c-7.4,0-14.9,0-22.3,0
		C269.7,460.4,269.7,457.5,270.1,454.5z"/>
	<path class="st6" d="M295.3,454.5c7.1,0,14.2,0,21.7,0c0,2.9,0.3,5.9,0.6,8.8c-7.4,0-14.9,0-22.3,0
		C295.3,460.4,295.3,457.5,295.3,454.5z"/>
	<path class="st6" d="M320.2,454.5c7.4,0,14.6,0,21.7,0c0.6,2.9,1,5.9,1.6,9.1c-7.4,0-14.9-0.3-22.3-0.3
		C320.8,460.4,320.5,457.5,320.2,454.5z"/>
	<path class="st6" d="M345.4,454.5c7.1,0,14.6,0,21.7,0.3c0.6,2.9,1.3,5.9,2.3,8.8c-7.4,0-14.9,0-22.3,0
		C346.4,460.7,346.1,457.5,345.4,454.5z"/>
	<path class="st6" d="M370.7,454.9c7.1,0,14.2,0,21.7,0c1,2.9,1.9,5.9,2.9,8.8c-7.4,0-14.9,0-22.3,0
		C372.3,460.7,371.3,457.8,370.7,454.9z"/>
	<path class="st6" d="M395.6,454.9c7.4,0,14.6,0,21.7,0c1.3,2.9,2.6,5.9,3.6,8.8c-7.1,0-14.6,0-22,0
		C397.8,460.7,396.5,457.8,395.6,454.9z"/>
	<path class="st6" d="M420.8,454.9c10,0,20.1,0,29.8,0c1.6,2.9,3.2,5.9,4.9,8.8c-10.4,0-20.7,0-30.7,0
		C423.4,460.7,422.1,457.8,420.8,454.9z"/>
	<path class="st6" d="M249,442.8c3.6,0,6.8,0,10,0c0,2.9,0,5.9-0.3,9.1c-3.6-0.3-6.8-0.3-10.4-0.3C248.7,448.6,249,445.7,249,442.8z
		"/>
	<path class="st6" d="M262.6,442.8c6.8,0,13.9,0.3,20.7,0.3c0,2.9,0.3,5.9,0.3,8.8c-7.4,0-14.2,0-21.7,0
		C262.3,449,262.6,445.7,262.6,442.8z"/>
	<path class="st6" d="M286.6,443.1c7.1,0,14.2,0,21,0c0.3,2.9,0.6,5.9,1,8.8c-7.4,0-14.6,0-21.7,0C286.9,449,286.9,446,286.6,443.1z
		"/>
	<path class="st6" d="M311.1,443.1c6.8,0,13.6,0,20.7,0c0.6,2.9,1,5.9,1.6,8.8c-7.4,0-14.6,0-21.7,0
		C311.8,449,311.5,446,311.1,443.1z"/>
	<path class="st6" d="M335.1,443.1c7.1,0,13.9,0,21,0c1,2.9,1.6,5.9,2.3,8.8c-7.4,0-14.6,0-21.7,0C336.4,449,335.7,446,335.1,443.1z
		"/>
	<path class="st6" d="M359.3,443.1c7.1,0,14.2,0,21,0c1,2.9,1.9,5.9,2.9,9.1c-7.1,0-14.2,0-21.7-0.3C361,449,360.3,446,359.3,443.1z
		"/>
	<path class="st6" d="M384.2,443.1c6.8,0,13.9,0,20.7,0c1.3,2.9,2.3,6.2,3.6,9.1c-7.1,0-14.2,0-21.3,0
		C386.2,449.3,385.2,446,384.2,443.1z"/>
	<path class="st6" d="M409.1,443.1c12,0,23.6,0,35.6,0c1.6,3.3,2.9,6.2,4.5,9.1c-12.3,0-24.3,0-36.5,0
		C411.4,449.3,410.4,446,409.1,443.1z"/>
	<path class="st6" d="M249,428.7c0.6,0,1.6,0,2.3,0c2.3,0,3.9,0.7,4.2,1.6l0,0c0,1.3-1.9,2-4.2,2c-0.6,0-1.6,0-2.3,0
		C249,431,249,430,249,428.7z"/>
	<path class="st6" d="M262,428.7c3.6,0,7.4,0,11.3,0c1.9,0,3.9,1,3.9,2l0,0c0.3,1-1.6,1.6-3.9,1.6c-3.9,0-7.4,0-11.3,0
		c-2.3,0-4.2-0.6-4.2-1.6l0,0C257.8,429.4,259.7,428.7,262,428.7z"/>
	<path class="st6" d="M283.7,428.7c3.9,0,7.4,0,11.3,0c2.3,0,4.2,1,4.2,2l0,0c0.3,1-1.6,1.6-3.9,1.6c-3.6,0-7.4,0-11.3,0
		c-2.3,0-3.9-0.6-4.2-1.6l0,0C279.8,429.7,281.4,428.7,283.7,428.7z"/>
	<path class="st6" d="M305.6,428.7c3.6,0,7.4,0,11.3,0c1.9,0,3.9,1,4.2,2l0,0c0.3,1-1.3,1.6-3.9,1.6c-3.6,0-7.4,0-11.3,0
		c-1.9,0-3.9-0.6-4.2-1.6l0,0C301.4,429.7,303.4,428.7,305.6,428.7z"/>
	<path class="st6" d="M327.3,428.7c3.9,0,7.4,0,11.3,0c2.3,0,4.2,1,4.5,2l0,0c0.3,1-1.3,1.6-3.6,1.6c-3.9,0-7.8,0-11.3,0
		c-2.3,0-4.2-0.6-4.5-1.6l0,0C323.4,429.7,325.1,428.7,327.3,428.7z"/>
	<path class="st6" d="M349.3,428.7c3.6,0,7.4,0,11.3,0c1.9,0,4.2,1,4.5,2l0,0c0.3,1-1.3,1.6-3.6,1.6c-3.9,0-7.4,0-11.3,0
		c-2.3,0-4.2-0.6-4.5-1.6l0,0C345.4,429.7,347,428.7,349.3,428.7z"/>
	<path class="st6" d="M371,428.7c3.9,0,7.4,0,11.3,0c2.3,0,4.5,1,4.9,2l0,0c0.3,1-1.3,2-3.6,2c-3.9,0-7.4-0.3-11.3-0.3
		c-2.3,0-4.2-0.6-4.5-1.6l0,0C367.4,429.7,369,428.7,371,428.7z"/>
	<path class="st6" d="M393,428.7c3.6,0,7.4,0,11.3,0c1.9,0,4.2,1,4.9,2l0,0c0.3,1-1.3,2-3.6,2c-3.6,0-7.4,0-11.3,0
		c-2.3,0-4.2-1-4.5-2l0,0C389.1,429.7,390.7,428.7,393,428.7z"/>
	<path class="st6" d="M415,429.1c3.6,0,7.4,0,11,0c2.3,0,4.5,0.7,5.2,1.6l0,0c0.3,1-1,2-3.2,2c-3.9,0-7.8,0-11.3,0
		c-2.3,0-4.5-1-5.2-2l0,0C411.1,429.7,412.7,429.1,415,429.1z"/>
	<path class="st6" d="M249.4,497h254.9c1.6,0,2.6,2.3,2.6,4.9l0,0c0,2.6-1,4.9-2.6,4.9H249.4V497z"/>
	<path class="st28" d="M249.4,506.1h254.9c1.6,0,2.3-3.3,2.3-4.2s-0.6-4.2-2.3-4.2H249.4V506.1z"/>
	<path class="st9" d="M510.4,495.3c0-0.3-0.3-0.7-0.6-1c-4.8-6.9-10-13.7-15.2-20.6c-5.2-6.9-10.3-14-15.5-21.2
		c-5.2-6.9-10.3-14-15.5-21.2c-5.2-6.9-10.3-14-15.5-21.2c-1-1.3-2.6-2-4.2-2H69.5c-1.6,0-3.2,0.7-4.2,2c-5.2,7.2-10.7,14-15.8,21.2
		c-5.2,7.2-10.7,14.4-15.8,21.2c-5.2,7.2-10.7,14-15.9,21.2c-5.2,6.9-10.3,13.7-15.5,20.6c0,0.3-0.3,0.7-0.6,1
		c-1.3,2-1.6,4.2-1.6,6.5c0,4.6,2.3,10.1,7.8,10.1h496.5c5.5,0,7.8-5.6,7.8-10.1C512,499.6,511.7,497.3,510.4,495.3z M504.2,506.8
		H249.4H7.8c-1.6,0-2.6-2.3-2.6-4.9c0-1.3,0.3-2.9,1-3.6c0-0.3,0-0.7,0.3-0.7c5.2-6.9,10.3-13.7,15.5-20.6
		c5.2-7.2,10.4-14.4,15.9-21.2c5.2-7.2,10.7-14.4,15.8-21.2c5.2-7.2,10.7-14,15.8-21.2H163h86.4h7.1h93.8h93.5
		c5.2,7.2,10.3,14,15.5,21.2c5.5,7.2,10.3,14,15.5,21.2c5.2,6.9,10.7,14,15.8,21.2c4.9,6.9,10,13.7,14.9,20.6c0.3,0,0.3,0.3,0.6,0.7
		c0.3,0.7,0.6,2.3,0.6,3.6C506.8,504.5,505.9,506.8,504.2,506.8z"/>
	<path class="st29" d="M365.2,239.7c9.1,0,16.2,7.2,16.2,16c0,4.6-1.9,8.8-5.2,11.4l-4.9,8.5l-6.1,11.1l-6.1-11.1l-4.9-8.5
		c-2.9-2.9-4.9-7.2-4.9-11.4C349.3,246.9,356.4,239.7,365.2,239.7z M365.2,248.5c4.5,0,8.1,3.6,8.1,7.8c0,4.6-3.6,8.2-8.1,8.2
		c-4.2,0-7.8-3.6-7.8-8.2C357.4,252.1,361,248.5,365.2,248.5z"/>
</g>
</svg>
